<?xml version="1.0" encoding="UTF-8" standalone="no"?>
<svg
   xmlns:dc="http://purl.org/dc/elements/1.1/"
   xmlns:cc="http://creativecommons.org/ns#"
   xmlns:rdf="http://www.w3.org/1999/02/22-rdf-syntax-ns#"
   xmlns:svg="http://www.w3.org/2000/svg"
   xmlns="http://www.w3.org/2000/svg"
   xmlns:sodipodi="http://sodipodi.sourceforge.net/DTD/sodipodi-0.dtd"
   xmlns:inkscape="http://www.inkscape.org/namespaces/inkscape"
   width="289.75421"
   height="286.06781"
   viewBox="0 0 289.75421 286.06781"
   version="1.1"
   id="svg14"
   sodipodi:docname="logoxqrn.svg"
   style="fill:none"
   inkscape:version="0.92.4 (unknown)">
  <metadata
     id="metadata20">
    <rdf:RDF>
      <cc:Work
         rdf:about="">
        <dc:format>image/svg+xml</dc:format>
        <dc:type
           rdf:resource="http://purl.org/dc/dcmitype/StillImage" />
        <dc:title></dc:title>
      </cc:Work>
    </rdf:RDF>
  </metadata>
  <defs
     id="defs18" />
  <sodipodi:namedview
     pagecolor="#ffffff"
     bordercolor="#666666"
     borderopacity="1"
     objecttolerance="10"
     gridtolerance="10"
     guidetolerance="10"
     inkscape:pageopacity="0"
     inkscape:pageshadow="2"
     inkscape:window-width="1508"
     inkscape:window-height="851"
     id="namedview16"
     showgrid="false"
     inkscape:zoom="0.67816092"
     inkscape:cx="288.5906"
     inkscape:cy="186.73977"
     inkscape:window-x="55"
     inkscape:window-y="27"
     inkscape:window-maximized="0"
     inkscape:current-layer="svg14" />
  <rect
     width="289.75421"
     height="286.06781"
     id="rect2"
     x="0"
     y="0"
     style="fill:#ffffff;stroke-width:1.6546272" />
  <path
     d="m 139.79666,160.96247 c -2.524,1.215 -5.702,1.776 -9.254,1.776 -13.3651,0 -20.0947,-9.0664 -20.0947,-19.5345 0,-10.4681 6.7296,-19.5343 20.0947,-19.5343 13.366,0 20.095,9.0662 20.095,19.5343 0,4.4863 -1.215,8.6923 -3.738,12.057 l 3.738,3.7385 -2.43,2.15 c -2.43,2.243 -6.168,2.15 -8.411,-0.187 z m -9.254,-7.2904 c 0.655,0 1.309,-0.0934 1.87,-0.0934 l -3.365,-3.3648 2.15,-2.1497 c 2.336,-2.3366 6.075,-2.3366 8.412,0 0.56,-1.402 0.841,-3.0844 0.841,-4.8602 0,-5.9818 -3.458,-10.5616 -9.908,-10.5616 -6.449,0 -9.9069,4.5798 -9.9069,10.5616 0,5.9818 3.3649,10.4681 9.9069,10.4681 z"
     id="path4"
     inkscape:connector-curvature="0"
     style="fill:#0d0f0f" />
  <path
     d="m 155.77866,161.99047 v -28.5069 c 0,-4.9537 4.019,-8.9727 8.973,-8.9727 h 6.823 c 7.57,0 15.328,2.7105 15.328,12.6178 0,6.1688 -3.084,9.627 -7.197,11.2159 l 10.375,13.6459 h -5.889 c -3.364,0 -6.449,-1.589 -8.411,-4.299 l -5.795,-7.9449 h -4.3 v 2.3366 c 0,5.5143 -4.393,9.9073 -9.907,9.9073 z m 9.907,-20.1885 h 6.356 c 2.804,0 4.767,-1.402 4.767,-4.2994 0,-2.8974 -1.963,-4.2994 -4.767,-4.2994 h -3.084 c -1.776,0 -3.178,1.402 -3.178,3.1778 v 5.421 z"
     id="path6"
     inkscape:connector-curvature="0"
     style="fill:#0d0f0f" />
  <path
     d="m 79.978159,134.97897 -11.6832,13.3656 -28.6939,-29.3482 c -2.8974,-2.8974 -0.7477,-7.8511 3.2713,-7.8511 h 14.9545 c 1.402,0 2.617,0.5608 3.5517,1.6824 z"
     id="path8"
     inkscape:connector-curvature="0"
     style="fill:#0d0f0f" />
  <path
     d="m 77.828459,158.06547 12.5244,-11.0294 24.207601,24.5814 c 3.0843,3.084 0.8412,8.412 -3.5517,8.412 H 98.297459 c -1.4955,0 -2.8975,-0.654 -3.8321,-1.776 z"
     id="path10"
     inkscape:connector-curvature="0"
     style="fill:#0d0f0f" />
  <path
     d="m 133.90766,103.38767 -104.307331,91.0358 c -0.74772,0.654 -1.77584,-0.374 -1.12158,-1.122 L 111.56956,96.284273 c 0.9346,-1.1215 2.3366,-1.7758 3.8321,-1.7758 h 15.141 c 4.674,0 6.917,5.794897 3.365,8.879197 z"
     id="path12"
     inkscape:connector-curvature="0"
     style="fill:#0d0f0f" />
</svg>
