<svg width="174" height="174" viewBox="0 0 174 174" fill="none" xmlns="http://www.w3.org/2000/svg">
<rect width="174" height="174" fill="white"/>
<path d="M117.678 103.454C115.154 104.669 111.976 105.23 108.424 105.23C95.0589 105.23 88.3293 96.1636 88.3293 85.6955C88.3293 75.2274 95.0589 66.1612 108.424 66.1612C121.79 66.1612 128.519 75.2274 128.519 85.6955C128.519 90.1818 127.304 94.3878 124.781 97.7525L128.519 101.491L126.089 103.641C123.659 105.884 119.921 105.791 117.678 103.454ZM108.424 96.1636C109.079 96.1636 109.733 96.0702 110.294 96.0702L106.929 92.7054L109.079 90.5557C111.415 88.2191 115.154 88.2191 117.491 90.5557C118.051 89.1537 118.332 87.4713 118.332 85.6955C118.332 79.7137 114.874 75.1339 108.424 75.1339C101.975 75.1339 98.5171 79.7137 98.5171 85.6955C98.5171 91.6773 101.882 96.1636 108.424 96.1636Z" fill="#0D0F0F"/>
<path d="M133.66 104.482V75.9751C133.66 71.0214 137.679 67.0024 142.633 67.0024H149.456C157.026 67.0024 164.784 69.7129 164.784 79.6202C164.784 85.789 161.7 89.2472 157.587 90.8361L167.962 104.482H162.073C158.709 104.482 155.624 102.893 153.662 100.183L147.867 92.2381H143.567V94.5747C143.567 100.089 139.174 104.482 133.66 104.482ZM143.567 84.2935H149.923C152.727 84.2935 154.69 82.8915 154.69 79.9941C154.69 77.0967 152.727 75.6947 149.923 75.6947H146.839C145.063 75.6947 143.661 77.0967 143.661 78.8725V84.2935H143.567Z" fill="#0D0F0F"/>
<path d="M57.8595 77.4705L46.1763 90.8361L17.4824 61.4879C14.585 58.5905 16.7347 53.6368 20.7537 53.6368H35.7082C37.1102 53.6368 38.3252 54.1976 39.2599 55.3192L57.8595 77.4705Z" fill="#0D0F0F"/>
<path d="M55.7098 100.557L68.2342 89.5276L92.4418 114.109C95.5261 117.193 93.283 122.521 88.8901 122.521H76.1788C74.6833 122.521 73.2813 121.867 72.3467 120.745L55.7098 100.557Z" fill="#0D0F0F"/>
<path d="M111.789 45.8792L7.48167 136.915C6.73395 137.569 5.70583 136.541 6.36009 135.793L89.4509 38.7758C90.3855 37.6543 91.7875 37 93.283 37H108.424C113.098 37 115.341 42.7949 111.789 45.8792Z" fill="#0D0F0F"/>
</svg>
