<svg aria-hidden="true" style="position: absolute; width: 0; height: 0; overflow: hidden;" version="1.1" 
  xmlns="http://www.w3.org/2000/svg" 
  xmlns:xlink="http://www.w3.org/1999/xlink">
  <defs>
    <symbol id="icon-triangle" viewBox="0 0 26 32">
      <title>triangle</title>
      <path d="M24.156 14.321c1.218 0.788 1.218 2.57 0 3.358l-20.069 12.985c-1.331 0.861-3.086-0.094-3.086-1.679v-25.97c0-1.585 1.756-2.54 3.086-1.679l20.069 12.985z"/>
    </symbol>
    <symbol id="icon-user2" viewBox="0 0 24 32">
      <title>user2</title>
      <path d="M12.191 12.19c-3.361 0-6.095-2.734-6.095-6.095s2.734-6.095 6.095-6.095c3.361 0 6.095 2.734 6.095 6.095s-2.734 6.095-6.095 6.095z"/>
      <path d="M19.604 32h-14.827c-0.060 0-0.119-0.005-0.178-0.013-2.665-0.406-4.599-2.351-4.599-4.624v-1.898c0-3.137 1.681-6.057 4.612-8.011 2.175-1.45 4.795-2.216 7.578-2.216 2.711 0 5.278 0.732 7.424 2.117 0.169 0.109 0.319 0.21 0.457 0.308 2.739 1.949 4.31 4.793 4.31 7.802v1.898c0 2.273-1.934 4.217-4.599 4.624-0.058 0.009-0.118 0.013-0.178 0.013z"/>
    </symbol>
    <symbol id="icon-user" viewBox="0 0 13 15">
      <title>user</title>
      <path d="M6.50002 7C4.57011 7 3 5.42989 3 3.50002C3 1.57011 4.57011 0 6.50002 0C8.42989 0 10 1.57011 10 3.50002C10 5.42989 8.42989 7 6.50002 7Z"/>
      <path d="M10.4529 15H2.54724C2.51544 15 2.48376 14.9981 2.45244 14.9944C1.03139 14.8247 0 14.0126 0 13.0635V12.2711C0 10.961 0.896378 9.74165 2.45938 8.92558C3.61911 8.32004 5.01632 8 6.5 8C7.94532 8 9.31418 8.30569 10.4585 8.884C10.5488 8.92961 10.6284 8.97171 10.7019 9.01269C12.1624 9.82654 13 11.0142 13 12.2711V13.0635C13 14.0126 11.9686 14.8247 10.5476 14.9944C10.5163 14.9982 10.4846 15 10.4529 15Z"/>
    </symbol>




    <symbol id="icon-selfie" viewBox="0 0 34 32">
      <title>selfie</title>
      <path d="M13.419 13.419c-1.708 0-3.097-1.621-3.097-3.613s1.389-3.613 3.097-3.613c1.708 0 3.097 1.621 3.097 3.613s-1.389 3.613-3.097 3.613z"/>
      <path d="M22.194 11.355c-1.423 0-2.581-1.158-2.581-2.581s1.158-2.581 2.581-2.581c1.423 0 2.581 1.158 2.581 2.581s-1.158 2.581-2.581 2.581z"/>
      <path d="M25.005 20.645h-3.803c-0.268 0-0.485-0.243-0.485-0.542v-0.375c0-1.639-0.642-3.188-1.761-4.249-0.056-0.053-0.116-0.107-0.187-0.168-0.204-0.175-0.25-0.498-0.105-0.736 0.836-1.37 2.218-2.187 3.698-2.187 2.468 0 4.476 2.246 4.476 5.006v0.902c0 1.151-0.735 2.135-1.747 2.341-0.029 0.006-0.058 0.009-0.087 0.009z"/>
      <path d="M17.186 23.742h-7.533c-0.030 0-0.060-0.002-0.090-0.007-1.354-0.225-2.337-1.303-2.337-2.563v-1.052c0-1.739 0.854-3.357 2.343-4.44 1.105-0.804 2.436-1.228 3.85-1.228 1.377 0 2.682 0.406 3.772 1.173 0.086 0.060 0.162 0.116 0.232 0.171 1.392 1.080 2.19 2.656 2.19 4.325v1.052c0 1.26-0.983 2.337-2.337 2.563-0.030 0.005-0.060 0.007-0.090 0.007z"/>
      <path stroke-linejoin="miter" stroke-linecap="butt" stroke-miterlimit="4" stroke-width="1.0323" d="M1.032 23.27c0-0.472 0.387-0.855 0.865-0.855s0.865 0.383 0.865 0.855v3.421c0 1.417 1.162 2.566 2.595 2.566h3.459c0.478 0 0.865 0.383 0.865 0.855s-0.387 0.855-0.865 0.855h-3.459c-2.388 0-4.324-1.915-4.324-4.277v-3.421z"/>
      <path stroke-linejoin="miter" stroke-linecap="butt" stroke-miterlimit="4" stroke-width="1.0323" d="M33.032 23.27c0-0.472-0.387-0.855-0.865-0.855s-0.865 0.383-0.865 0.855v3.421c0 1.417-1.162 2.566-2.595 2.566h-3.459c-0.478 0-0.865 0.383-0.865 0.855s0.387 0.855 0.865 0.855h3.459c2.388 0 4.324-1.915 4.324-4.277v-3.421z"/>
      <path stroke-linejoin="miter" stroke-linecap="butt" stroke-miterlimit="4" stroke-width="1.0323" d="M1.032 8.73c0 0.472 0.387 0.855 0.865 0.855s0.865-0.383 0.865-0.855v-3.421c0-1.417 1.162-2.566 2.595-2.566h3.459c0.478 0 0.865-0.383 0.865-0.855s-0.387-0.855-0.865-0.855h-3.459c-2.388 0-4.324 1.915-4.324 4.277v3.421z"/>
      <path stroke-linejoin="miter" stroke-linecap="butt" stroke-miterlimit="4" stroke-width="1.0323" d="M33.032 8.73c0 0.472-0.387 0.855-0.865 0.855s-0.865-0.383-0.865-0.855v-3.421c0-1.417-1.162-2.566-2.595-2.566h-3.459c-0.478 0-0.865-0.383-0.865-0.855s0.387-0.855 0.865-0.855h3.459c2.388 0 4.324 1.915 4.324 4.277v3.421z"/>
    </symbol>
    <symbol id="icon-bell2" viewBox="0 0 26 32">
      <title>bell2</title>
      <path d="M7.385 28.308c0 0.008-0.001 0.016-0.001 0.024 0 2.026 2.204 3.668 4.923 3.668s4.923-1.642 4.923-3.668c0-0.008-0.001-0.016-0.001-0.024h-9.844z"/>
      <path d="M25.535 23.18l-3.555-4.961c0-1.519 0-5.229 0-6.189 0-4.174-3.129-7.653-7.281-8.437v-1.906c0-0.932-0.795-1.687-1.776-1.687s-1.776 0.755-1.776 1.687v1.906c-4.151 0.784-7.281 4.263-7.281 8.437 0 1.634 0 5.242 0 6.189l-3.555 4.961c-0.374 0.522-0.414 1.199-0.103 1.758s0.922 0.908 1.587 0.908h22.254c0.665 0 1.276-0.35 1.587-0.908s0.272-1.235-0.103-1.758z"/>
    </symbol>
    <symbol id="icon-bell" viewBox="0 0 29 28">
      <title>bell</title>
      <path d="M26.6646 22.3078C25.3669 20.4448 24.681 18.2765 24.681 16.0373V9.67917C24.681 7.06981 23.6176 4.61833 21.6865 2.77635C20.048 1.21338 17.953 0.250489 15.69 0L13.2466 0.00888746C8.22449 0.608719 4.31896 4.7642 4.31896 9.77225V16.0374C4.31896 18.2765 3.63308 20.4449 2.33545 22.3079L0 25.6612H11.045C11.5493 27.0222 12.9073 28 14.5 28C16.0927 28 17.4507 27.0222 17.955 25.6612H29L26.6646 22.3078ZM4.56037 23.3223C6.00209 21.1386 6.76241 18.6271 6.76241 16.0373V9.77217C6.76241 5.65108 10.2212 2.28691 14.4726 2.27287C14.4818 2.27287 14.4909 2.27287 14.5001 2.27287C16.5619 2.27287 18.5008 3.03946 19.9618 4.43302C21.4294 5.83288 22.2376 7.696 22.2376 9.67917V16.0374C22.2376 18.6273 22.9977 21.1386 24.4396 23.3223H4.56037Z"/>
    </symbol>
    <symbol id="icon-star-footer" viewBox="0 0 31 29">
      <title>star-footer</title>
      <path d="M29.3706 13.2364C29.9415 12.6958 30.143 11.9024 29.8968 11.1648C29.65 10.4273 29.0071 9.90078 28.2174 9.78905L21.1955 8.79756C20.8965 8.75524 20.6381 8.57297 20.5045 8.30944L17.3652 2.12635C17.0127 1.43169 16.2973 1 15.5 1C14.7033 1 13.9879 1.43169 13.6354 2.12635L10.4955 8.30944C10.362 8.57297 10.103 8.75524 9.8039 8.79756L2.78205 9.78961C1.99288 9.90078 1.35004 10.4273 1.10324 11.1648C0.857027 11.9024 1.05853 12.6958 1.62936 13.2364L6.70992 18.0488C6.92652 18.2542 7.02582 18.5499 6.97472 18.8388L5.77557 25.6347C5.64085 26.3982 5.95733 27.155 6.60249 27.6109C7.24707 28.0674 8.08618 28.1267 8.7929 27.765L15.0726 24.5563C15.3403 24.4198 15.6597 24.4198 15.9274 24.5563L22.2077 27.765C22.5143 27.9219 22.8465 27.9992 23.1769 27.9992C23.606 27.9992 24.0334 27.8688 24.3981 27.6109C25.0433 27.155 25.3597 26.3982 25.225 25.6347L24.0253 18.8394C23.9742 18.5499 24.0735 18.2548 24.2901 18.0493L29.3706 13.2364ZM22.8813 19.0301L24.0804 25.8255C24.1408 26.1674 24.0044 26.4942 23.7152 26.6984C23.4254 26.9022 23.0648 26.927 22.7483 26.7667L16.468 23.5575C16.1655 23.4035 15.8322 23.3256 15.5 23.3256C15.1678 23.3256 14.8351 23.4035 14.532 23.5581L8.25284 26.7667C7.9352 26.927 7.57458 26.9022 7.28539 26.6984C6.9962 26.4942 6.86032 26.168 6.92013 25.8255L8.11928 19.0301C8.23484 18.3744 8.01127 17.7051 7.52116 17.2413L2.44002 12.4283C2.18393 12.1857 2.09682 11.8437 2.20774 11.5136C2.31807 11.1829 2.59507 10.956 2.94871 10.9058L9.96998 9.91432C10.6477 9.81896 11.2336 9.40589 11.5361 8.80885L14.676 2.62576C14.8339 2.31427 15.1423 2.12861 15.4994 2.12861C15.8571 2.12861 16.1649 2.31427 16.3234 2.62576L19.4633 8.80885C19.7658 9.40589 20.3512 9.81896 21.0289 9.91432L28.0507 10.9058C28.4044 10.956 28.6813 11.1829 28.7917 11.5136C28.902 11.8437 28.8155 12.1857 28.5594 12.4283L23.4788 17.2407C22.9887 17.7051 22.7652 18.3738 22.8813 19.0301Z" stroke-width="1.5" stroke-linejoin="round"/>
    </symbol>
    <symbol id="icon-setting" viewBox="0 0 28 29">
      <title>setting</title>
      <path fill-rule="evenodd" clip-rule="evenodd" d="M27.0129 11.7566C27.4097 11.7566 27.8686 12.0524 27.9129 12.446C28.0315 13.5064 28.03 14.5772 27.9067 15.63C27.858 16.0398 27.4887 16.349 27.0873 16.3164L26.9141 16.3119C25.9523 16.3119 25.6935 17.0975 25.4025 17.9807C25.3191 18.2339 25.233 18.4952 25.1269 18.7483C25.0285 18.9827 24.9205 19.2043 24.8175 19.4156C24.3905 20.2916 24.0493 20.9916 24.8344 21.7025C25.1399 21.979 25.1764 22.4458 24.918 22.7666C24.2522 23.5959 23.4906 24.3491 22.653 25.0059C22.3306 25.255 21.8732 25.2187 21.5964 24.9176C20.9164 24.1705 20.1625 24.5216 19.2817 24.9317C19.0836 25.024 18.8791 25.1192 18.6675 25.2056C18.4313 25.3023 18.1905 25.3847 17.9565 25.4648C17.01 25.7886 16.1758 26.0739 16.2135 27.1143C16.2271 27.5217 15.9263 27.8713 15.5203 27.9161C15.0081 27.9731 14.4957 28.0012 13.9834 28.0012C13.4437 28.0012 12.9055 27.9701 12.3705 27.9077C11.9616 27.8606 11.6591 27.5019 11.6834 27.0898C11.7435 26.0296 10.907 25.7319 9.94594 25.3899C9.71778 25.3087 9.48261 25.225 9.25076 25.128C9.04836 25.043 8.8519 24.9504 8.66102 24.8604C7.76381 24.4373 6.98963 24.0722 6.29893 24.8362C6.02087 25.1426 5.55412 25.1791 5.23333 24.9206C4.41548 24.2623 3.669 23.5084 3.01847 22.6798C2.76603 22.3598 2.80405 21.9 3.10359 21.6248C3.868 20.9241 3.53656 20.2396 3.12275 19.385C3.01813 19.1689 2.90825 18.942 2.80949 18.7012C2.70371 18.4438 2.61639 18.1819 2.53228 17.9296C2.22592 17.0106 1.96227 16.2197 1.00572 16.2442C0.604502 16.2442 0.131607 15.951 0.0876413 15.5557C-0.0309211 14.4953 -0.0294625 13.4236 0.093684 12.3717C0.142234 11.9681 0.458435 11.6701 0.902367 11.6844C2.00412 11.6844 2.29515 10.8541 2.61915 9.92978C2.69747 9.70636 2.77771 9.47744 2.87179 9.25343C2.97051 9.01803 3.07897 8.79564 3.18238 8.58358C3.60929 7.7082 3.9503 7.00894 3.16589 6.29858C2.86188 6.02197 2.82385 5.55595 3.08233 5.23444C3.74505 4.40742 4.50821 3.65353 5.34731 2.99519C5.66799 2.74525 6.12859 2.78234 6.40385 3.08406C7.08371 3.83179 7.84165 3.47846 8.7197 3.06914C8.91729 2.97703 9.12096 2.88208 9.33119 2.79621C9.56764 2.69936 9.80857 2.61687 10.0426 2.53674C10.9897 2.21245 11.8234 1.92701 11.7868 0.885968C11.7731 0.479334 12.0741 0.12969 12.48 0.0848902C13.5289 -0.0314843 14.5839 -0.0277336 15.6297 0.093225C16.0403 0.141046 16.3413 0.499129 16.3168 0.910972C16.2568 1.96934 17.0913 2.26756 18.0494 2.6099C18.2782 2.69167 18.5141 2.77596 18.7465 2.87372C18.9511 2.95911 19.1496 3.05231 19.3423 3.14279C20.2403 3.56446 21.0128 3.9272 21.6999 3.16626C21.9766 2.85985 22.4448 2.82422 22.7639 3.08031C23.5788 3.73313 24.3252 4.48639 24.9819 5.32028C25.2343 5.64024 25.1978 6.10084 24.8968 6.37599C24.1341 7.07562 24.4648 7.76004 24.8774 8.61398C24.9821 8.83063 25.0921 9.05819 25.1908 9.29968C25.2948 9.55354 25.3791 9.81341 25.4606 10.0646C25.7531 10.9664 26.0094 11.7566 27.0129 11.7566ZM14 23.6925C19.353 23.6925 23.6925 19.353 23.6925 14C23.6925 8.647 19.353 4.30752 14 4.30752C8.647 4.30752 4.30752 8.647 4.30752 14C4.30752 19.353 8.647 23.6925 14 23.6925Z" />
    </symbol>

    <symbol id="icon-cart" viewBox="0 0 24 22">
      <title>cart</title>
      <path d="M8.50068 21.9852C10.1072 21.9852 11.4096 20.6617 11.4096 19.029C11.4096 17.3963 10.1072 16.0728 8.50068 16.0728C6.89415 16.0728 5.5918 17.3963 5.5918 19.029C5.5918 20.6617 6.89415 21.9852 8.50068 21.9852Z"/>
      <path d="M17.8202 16.0444C16.2059 15.8829 14.7684 17.082 14.6095 18.7226C14.4507 20.3632 15.6305 21.8241 17.2449 21.9855C17.4362 22.0047 17.6289 22.0047 17.8202 21.9855C19.4345 21.8241 20.6144 20.3632 20.4555 18.7226C20.3183 17.3052 19.2148 16.1838 17.8202 16.0444Z" />
      <path d="M23.8076 4.79314C23.6631 4.57322 23.4182 4.4434 23.1581 4.44872H19.9385V4.39132C19.3171 4.39132 17.1699 4.39066 13.754 4.39043C10.3382 4.39021 7.56873 4.39048 7.56873 4.39048V4.39132V4.44872H5.1682L4.3492 0.660133C4.25824 0.274738 3.92017 0.00224234 3.53019 4.10097e-08H0V1.72209H2.85239L5.47886 13.9776C5.54819 14.3805 5.89542 14.6725 6.29786 14.6664H21.0682C21.4582 14.6641 21.7962 14.3917 21.8872 14.0063L23.9771 5.51067C24.0383 5.25769 23.9752 4.99024 23.8076 4.79314Z" />
    </symbol>

    <!-- icon social network -->
    <symbol id="icon-google" viewBox="0 0 96.828 96.827">
      <title>google</title>
      <path d="M62.617,0H39.525c-10.29,0-17.413,2.256-23.824,7.552c-5.042,4.35-8.051,10.672-8.051,16.912
			c0,9.614,7.33,19.831,20.913,19.831c1.306,0,2.752-0.134,4.028-0.253l-0.188,0.457c-0.546,1.308-1.063,2.542-1.063,4.468
			c0,3.75,1.809,6.063,3.558,8.298l0.22,0.283l-0.391,0.027c-5.609,0.384-16.049,1.1-23.675,5.787
			c-9.007,5.355-9.707,13.145-9.707,15.404c0,8.988,8.376,18.06,27.09,18.06c21.76,0,33.146-12.005,33.146-23.863
			c0.002-8.771-5.141-13.101-10.6-17.698l-4.605-3.582c-1.423-1.179-3.195-2.646-3.195-5.364c0-2.672,1.772-4.436,3.336-5.992
			l0.163-0.165c4.973-3.917,10.609-8.358,10.609-17.964c0-9.658-6.035-14.649-8.937-17.048h7.663c0.094,0,0.188-0.026,0.266-0.077
			l6.601-4.15c0.188-0.119,0.276-0.348,0.214-0.562C63.037,0.147,62.839,0,62.617,0z M34.614,91.535
			c-13.264,0-22.176-6.195-22.176-15.416c0-6.021,3.645-10.396,10.824-12.997c5.749-1.935,13.17-2.031,13.244-2.031
			c1.257,0,1.889,0,2.893,0.126c9.281,6.605,13.743,10.073,13.743,16.678C53.141,86.309,46.041,91.535,34.614,91.535z
			 M34.489,40.756c-11.132,0-15.752-14.633-15.752-22.468c0-3.984,0.906-7.042,2.77-9.351c2.023-2.531,5.487-4.166,8.825-4.166
			c10.221,0,15.873,13.738,15.873,23.233c0,1.498,0,6.055-3.148,9.22C40.94,39.337,37.497,40.756,34.489,40.756z"/>
      <path d="M94.982,45.223H82.814V33.098c0-0.276-0.225-0.5-0.5-0.5H77.08c-0.276,0-0.5,0.224-0.5,0.5v12.125H64.473
			c-0.276,0-0.5,0.224-0.5,0.5v5.304c0,0.275,0.224,0.5,0.5,0.5H76.58V63.73c0,0.275,0.224,0.5,0.5,0.5h5.234
			c0.275,0,0.5-0.225,0.5-0.5V51.525h12.168c0.276,0,0.5-0.223,0.5-0.5v-5.302C95.482,45.446,95.259,45.223,94.982,45.223z"/>
    </symbol>

    <symbol id="icon-instagram" viewBox="0 0 21 21">
      <title>instagram</title>
      <path fill-rule="evenodd" clip-rule="evenodd" d="M5.79512 0H15.2046C18.4003 0 21.0001 2.59982 21 5.79524V15.2048C21 18.4002 18.4003 21 15.2046 21H5.79512C2.59969 21 0 18.4003 0 15.2048V5.79524C0 2.59982 2.59969 0 5.79512 0ZM15.2048 19.1368C17.3729 19.1368 19.1369 17.3729 19.1369 15.2048H19.1368V5.79524C19.1368 3.6272 17.3728 1.86322 15.2046 1.86322H5.79512C3.62707 1.86322 1.86322 3.6272 1.86322 5.79524V15.2048C1.86322 17.3729 3.62707 19.1369 5.79512 19.1368H15.2048Z"/>
      <path fill-rule="evenodd" clip-rule="evenodd" d="M5 10.5001C5 7.46731 7.46725 5 10.5 5C13.5327 5 16 7.46731 16 10.5001C16 13.5328 13.5327 16 10.5 16C7.46725 16 5 13.5328 5 10.5001ZM6.89381 10.5C6.89381 12.4884 8.51163 14.106 10.5 14.106C12.4884 14.106 14.1062 12.4884 14.1062 10.5C14.1062 8.51146 12.4885 6.89373 10.5 6.89373C8.5115 6.89373 6.89381 8.51146 6.89381 10.5Z"/>
      <path fill-rule="evenodd" clip-rule="evenodd" d="M16.5 3C16.1059 3 15.7188 3.15955 15.4405 3.43909C15.1608 3.71727 15 4.10455 15 4.5C15 4.89423 15.1609 5.28136 15.4405 5.56091C15.7186 5.83909 16.1059 6 16.5 6C16.8955 6 17.2814 5.83909 17.5609 5.56091C17.8405 5.28136 18 4.89409 18 4.5C18 4.10455 17.8405 3.71727 17.5609 3.43909C17.2827 3.15955 16.8955 3 16.5 3Z"/>
    </symbol>
    <symbol id="icon-facebook" viewBox="0 0 9 16">
      <title>facebook</title>
      <path fill-rule="evenodd" clip-rule="evenodd" d="M0.287365 8.5216H2.24036V15.7419C2.24036 15.8845 2.36898 16 2.52772 16H5.83909C5.99784 16 6.12646 15.8845 6.12646 15.7419V8.55561H8.37159C8.51757 8.55561 8.64039 8.45724 8.65706 8.32702L8.99805 5.66885C9.00741 5.59572 8.98161 5.52248 8.92712 5.46761C8.87258 5.4127 8.79453 5.38126 8.71263 5.38126H6.12657V3.71499C6.12657 3.2127 6.42773 2.95799 7.02178 2.95799C7.10643 2.95799 8.71263 2.95799 8.71263 2.95799C8.87138 2.95799 9 2.84243 9 2.69992V0.259974C9 0.117419 8.87138 0.00190968 8.71263 0.00190968H6.38239C6.36595 0.0011871 6.32945 0 6.27566 0C5.87134 0 4.46595 0.0712774 3.3558 0.988439C2.12576 2.0048 2.29674 3.22173 2.3376 3.43272V5.38121H0.287365C0.128625 5.38121 0 5.49672 0 5.63928V8.26348C0 8.40604 0.128625 8.5216 0.287365 8.5216Z"/>
    </symbol>
    <symbol id="icon-twitter" viewBox="0 0 16 12">
      <title>twitter</title>
      <path fill-rule="evenodd" clip-rule="evenodd" d="M16 1.41979C15.4111 1.66072 14.7792 1.82412 14.1153 1.89707C14.7932 1.52226 15.3121 0.927762 15.5581 0.221549C14.9222 0.568645 14.2203 0.820681 13.4724 0.957308C12.8736 0.367421 12.0217 0 11.0769 0C9.26422 0 7.7945 1.35703 7.7945 3.02977C7.7945 3.26701 7.82349 3.49872 7.87949 3.72029C5.15201 3.5938 2.73347 2.38726 1.11477 0.553871C0.831818 1.00069 0.670851 1.52132 0.670851 2.07707C0.670851 3.12855 1.25075 4.05631 2.13059 4.5991C1.59268 4.58249 1.08677 4.44586 0.64387 4.21876V4.25661C0.64387 5.72442 1.77566 6.94943 3.27637 7.22823C3.00142 7.29655 2.71148 7.3344 2.41153 7.3344C2.19959 7.3344 1.99462 7.31501 1.79365 7.27808C2.21156 8.48279 3.42335 9.35885 4.85909 9.38286C3.73629 10.1952 2.32055 10.678 0.782851 10.678C0.517909 10.678 0.256942 10.6633 0 10.6365C1.45273 11.4978 3.17742 12 5.03107 12C11.0689 12 14.3693 7.38241 14.3693 3.37781L14.3583 2.98547C15.0032 2.5608 15.5611 2.02723 16 1.41979Z"/>
    </symbol>
    <symbol id="icon-telegram" viewBox="0 0 17 15">
      <title>telegram</title>
      <path fill-rule="evenodd" clip-rule="evenodd" d="M4.21742 8.67407L0.300271 7.19245C-0.0975867 7.04135 -0.101043 6.47214 0.295681 6.31708L16.3718 0.0321859C16.7125 -0.10139 17.0642 0.201194 16.99 0.563905L14.105 14.6273C14.037 14.9594 13.6529 15.1099 13.3817 14.9102L9.44351 12.0126C9.20432 11.8366 8.87831 11.8461 8.64944 12.0351L6.46595 13.839C6.21248 14.049 5.8306 13.932 5.73359 13.6155L4.21742 8.67407ZM13.1448 3.10701L5.48924 7.88536C5.19582 8.0689 5.05767 8.42799 5.15247 8.76417L5.9802 11.7116C6.03897 11.9205 6.33811 11.8991 6.36662 11.6833L6.58184 10.0669C6.62241 9.7626 6.76566 9.48224 6.98774 9.27275L13.3058 3.32099C13.4239 3.20992 13.2824 3.02139 13.1448 3.10701Z"/>
    </symbol>
    <symbol id="icon-whatsapp" viewBox="0 0 18 18">
      <title>whatsapp</title>
      <path fill-rule="evenodd" clip-rule="evenodd" d="M18 8.7682C18 13.6108 14.0442 17.5364 9.1636 17.5364C7.6142 17.5364 6.1586 17.1404 4.8922 16.4454L0 18L1.595 13.2956C0.7904 11.9744 0.327 10.4248 0.327 8.7682C0.327 3.9256 4.2832 0 9.1636 0C14.0446 0 18 3.9256 18 8.7682ZM9.1636 1.3964C5.0668 1.3964 1.7344 4.7034 1.7344 8.7682C1.7344 10.3812 2.2602 11.875 3.1496 13.0902L2.2214 15.828L5.0764 14.9206C6.2494 15.6908 7.6546 16.14 9.1638 16.14C13.26 16.14 16.593 12.8334 16.593 8.7686C16.593 4.7038 13.2602 1.3964 9.1636 1.3964ZM13.3279 10.5937C13.4794 10.6664 13.5818 10.7155 13.6258 10.7876C13.6796 10.8772 13.6796 11.3074 13.4996 11.8098C13.3184 12.3114 12.434 12.7954 12.0372 12.8312C11.9692 12.8374 11.9128 12.8509 11.855 12.8648C11.5754 12.9319 11.2628 13.0069 9.4378 12.294C7.40286 11.4987 6.06155 9.52466 5.78435 9.11669C5.76159 9.0832 5.74601 9.06026 5.7378 9.0494L5.73744 9.04892C5.62748 8.90394 4.8534 7.88323 4.8534 6.8268C4.8534 5.83741 5.34316 5.31851 5.56868 5.07957C5.58419 5.06314 5.59844 5.04804 5.6112 5.0342C5.8098 4.8192 6.0446 4.7654 6.189 4.7654C6.26363 4.7654 6.33832 4.77021 6.41049 4.77485C6.47795 4.7792 6.54322 4.7834 6.6042 4.7834C6.61934 4.7834 6.63525 4.78238 6.65184 4.78131C6.77391 4.77345 6.93258 4.76323 7.0914 5.1418C7.14922 5.27975 7.23305 5.48213 7.32206 5.697C7.51075 6.15253 7.72271 6.66422 7.7594 6.7372C7.8138 6.845 7.85 6.9704 7.7774 7.1138C7.76709 7.13443 7.75751 7.15394 7.74835 7.1726C7.69376 7.28383 7.654 7.36484 7.561 7.4724C7.52515 7.51395 7.48808 7.55871 7.451 7.6035C7.37617 7.69387 7.30126 7.78434 7.236 7.8488C7.1278 7.9558 7.0148 8.072 7.141 8.287C7.2674 8.5024 7.7022 9.2056 8.346 9.7752C9.03856 10.3879 9.64031 10.6469 9.94496 10.7781C10.0043 10.8036 10.0523 10.8243 10.0876 10.8418C10.3044 10.9494 10.4306 10.9314 10.557 10.7876C10.6836 10.6442 11.0988 10.1604 11.243 9.9452C11.3872 9.7302 11.532 9.7662 11.7306 9.8378C11.9286 9.9092 12.9938 10.4294 13.2106 10.5368C13.2524 10.5576 13.2916 10.5763 13.3279 10.5937Z"/>
    </symbol>
    <symbol id="icon-linkedin" viewBox="0 0 16 14">
      <title>linkedin</title>
      <path fill-rule="evenodd" clip-rule="evenodd" d="M2.01164 0C0.795282 0 0 0.864264 0 2.00022C0 3.11109 0.771591 4 1.96497 4H1.98805C3.22821 4 4 3.11109 4 2.00022C3.97681 0.864264 3.22821 0 2.01164 0Z"/>
      <path fill-rule="evenodd" clip-rule="evenodd" d="M0 5H4V14H0V5Z"/>
      <path fill-rule="evenodd" clip-rule="evenodd" d="M12.2285 5C10.4612 5 9.27612 6.48166 9.27612 6.48166V5.20639H6V14H9.27594V9.08931C9.27594 8.82641 9.2973 8.56393 9.38386 8.37594C9.62068 7.85098 10.1596 7.30713 11.0647 7.30713C12.2501 7.30713 12.7242 8.11354 12.7242 9.29569V14H16V8.9579C16 6.25688 14.3837 5 12.2285 5Z"/>
    </symbol>
    <symbol id="icon-vk" viewBox="0 0 17 9">
      <title>vk</title>
      <path fill-rule="evenodd" clip-rule="evenodd" d="M16.9098 8.12799C16.8893 8.08682 16.8701 8.05268 16.8522 8.02532C16.5573 7.5324 15.9937 6.92739 15.1617 6.21009L15.1441 6.19367L15.1353 6.18561L15.1264 6.17735H15.1175C14.7399 5.84335 14.5007 5.61876 14.4006 5.50378C14.2174 5.28476 14.1763 5.06305 14.2765 4.83841C14.3472 4.66869 14.613 4.31026 15.0731 3.76263C15.3151 3.4724 15.5068 3.2398 15.6484 3.06455C16.6693 1.80515 17.1119 1.00038 16.9761 0.649913L16.9234 0.568014C16.8879 0.518708 16.7965 0.473602 16.6491 0.432466C16.5014 0.391416 16.3127 0.384627 16.0825 0.411984L13.5334 0.428324C13.4921 0.414746 13.4331 0.416012 13.3563 0.432466C13.2796 0.448921 13.2412 0.457177 13.2412 0.457177L13.1968 0.477745L13.1616 0.502455C13.1321 0.518795 13.0997 0.547532 13.0642 0.588611C13.029 0.629546 12.9995 0.677586 12.9759 0.732329C12.6984 1.39485 12.3829 2.01083 12.0287 2.58024C11.8104 2.91977 11.6099 3.21402 11.4267 3.46317C11.2439 3.71223 11.0904 3.89573 10.9666 4.01336C10.8426 4.1311 10.7307 4.22543 10.6302 4.29668C10.5298 4.36797 10.4532 4.39808 10.4002 4.38707C10.347 4.37605 10.297 4.36512 10.2496 4.35419C10.167 4.30488 10.1006 4.23782 10.0505 4.15296C10.0002 4.0681 9.96639 3.96129 9.94868 3.83262C9.93108 3.70386 9.92066 3.59311 9.91768 3.49999C9.91492 3.40699 9.91619 3.27544 9.92218 3.10572C9.92832 2.93591 9.93108 2.82101 9.93108 2.76078C9.93108 2.55268 9.93545 2.32683 9.94422 2.08318C9.95315 1.83953 9.96037 1.64647 9.96642 1.50425C9.97243 1.36189 9.97522 1.21126 9.97522 1.05247C9.97522 0.893681 9.96481 0.76915 9.94422 0.678766C9.92388 0.588496 9.89266 0.500873 9.85153 0.415925C9.81014 0.331064 9.74956 0.265418 9.67007 0.218817C9.59043 0.172272 9.49141 0.135336 9.37358 0.107893C9.0608 0.0422185 8.66252 0.00669179 8.17856 0.00116861C7.08107 -0.0097627 6.37588 0.0559977 6.06313 0.198364C5.93922 0.258514 5.82709 0.340701 5.72683 0.444663C5.62059 0.565166 5.60577 0.630927 5.68247 0.641743C6.03657 0.690963 6.28724 0.808704 6.43478 0.994853L6.48795 1.09349C6.5293 1.16466 6.5706 1.29066 6.61192 1.47131C6.65319 1.65197 6.67982 1.85181 6.69154 2.07072C6.72099 2.47049 6.72099 2.8127 6.69154 3.09737C6.66199 3.38216 6.63409 3.60387 6.60746 3.76266C6.58083 3.92145 6.54102 4.05012 6.48795 4.14865C6.43478 4.2472 6.39941 4.30744 6.38167 4.3293C6.36397 4.35117 6.34922 4.36494 6.3375 4.37035C6.2608 4.39762 6.18103 4.41152 6.09847 4.41152C6.01579 4.41152 5.91553 4.37314 5.79754 4.29645C5.67958 4.21976 5.55716 4.11442 5.43027 3.98025C5.30338 3.84605 5.16027 3.65852 5.0009 3.41763C4.84164 3.17674 4.6764 2.89204 4.50527 2.56352L4.36369 2.32528C4.27518 2.17201 4.15427 1.94884 4.00085 1.65597C3.84733 1.36298 3.71163 1.07957 3.59367 0.805799C3.54652 0.690819 3.47568 0.603282 3.38128 0.543045L3.33698 0.518334C3.30753 0.496472 3.26025 0.473257 3.19539 0.448518C3.13045 0.423807 3.06268 0.406087 2.99181 0.395185L0.566585 0.411524C0.318758 0.411524 0.150606 0.46362 0.0620652 0.567669L0.0266304 0.616889C0.00892846 0.644303 0 0.688086 0 0.748352C0 0.808589 0.0177019 0.882519 0.0531367 0.970056C0.407175 1.74215 0.792183 2.48677 1.20816 3.20404C1.62414 3.92131 1.98562 4.49908 2.29238 4.93685C2.5992 5.37494 2.91195 5.7884 3.23061 6.17704C3.54928 6.56582 3.76021 6.81497 3.86342 6.92442C3.96674 7.03408 4.04791 7.11607 4.1069 7.17081L4.32822 7.36789C4.46984 7.49932 4.6778 7.65673 4.95219 7.84012C5.22665 8.02362 5.5305 8.20428 5.86389 8.38237C6.19734 8.56018 6.58526 8.70528 7.02787 8.81749C7.47042 8.92983 7.90115 8.97491 8.32014 8.95316H9.33805C9.54449 8.93662 9.70089 8.87638 9.80719 8.77242L9.84241 8.73125C9.8661 8.69857 9.88826 8.6478 9.90872 8.57948C9.92943 8.51104 9.93973 8.43565 9.93973 8.35363C9.93368 8.11824 9.95299 7.90608 9.99714 7.7172C10.0413 7.52838 10.0915 7.38601 10.1478 7.29013C10.204 7.19434 10.2674 7.11351 10.338 7.04798C10.4087 6.9823 10.4592 6.94252 10.4887 6.92882C10.5181 6.91504 10.5416 6.9057 10.5593 6.90009C10.7009 6.8563 10.8676 6.89871 11.0595 7.02749C11.2513 7.15617 11.4312 7.31504 11.5995 7.50387C11.7677 7.69286 11.9698 7.9049 12.2058 8.1403C12.4419 8.37578 12.6484 8.55083 12.8253 8.66598L13.0023 8.76453C13.1205 8.8303 13.2739 8.89053 13.4627 8.94528C13.6513 8.99999 13.8164 9.01368 13.9583 8.98633L16.2241 8.95353C16.4482 8.95353 16.6226 8.9191 16.7463 8.85078C16.8702 8.78234 16.9438 8.70694 16.9676 8.62493C16.9913 8.54283 16.9926 8.44968 16.9721 8.34555C16.9511 8.24167 16.9304 8.16904 16.9098 8.12799Z"/>
    </symbol>

    <symbol id="icon-youtube" viewBox="0 0 26 20">
      <title>youtube</title>
      <path d="M24.6917 2.46529C23.9985 1.15523 23.2462 0.914261 21.7145 0.822625C20.1843 0.712322 16.3366 0.666504 13.0032 0.666504C9.66342 0.666504 5.81412 0.712322 4.28557 0.820928C2.75703 0.914262 2.00314 1.15353 1.30356 2.46529C0.589602 3.77366 0.22224 6.02723 0.22224 9.99475C0.22224 9.99814 0.22224 9.99984 0.22224 9.99984C0.22224 10.0032 0.22224 10.0049 0.22224 10.0049V10.0083C0.22224 13.9589 0.589602 16.2294 1.30356 17.5242C2.00314 18.8343 2.75543 19.0718 4.28398 19.1821C5.81412 19.2772 9.66342 19.3332 13.0032 19.3332C16.3366 19.3332 20.1843 19.2772 21.7161 19.1838C23.2478 19.0735 24.0001 18.836 24.6933 17.5259C25.4136 16.2311 25.7778 13.9606 25.7778 10.01C25.7778 10.01 25.7778 10.0049 25.7778 10.0015C25.7778 10.0015 25.7778 9.99814 25.7778 9.99644C25.7778 6.02723 25.4136 3.77366 24.6917 2.46529ZM9.80557 15.0907V4.90893L17.7917 9.99984L9.80557 15.0907Z"/>
    </symbol>
    <symbol id="icon-skype" viewBox="0 0 23 23">
      <title>skype</title>
      <path d="M21.8028 13.746C21.9622 12.9773 22.0422 12.2285 22.0422 11.4999C22.0422 10.0724 21.7655 8.70728 21.2112 7.40449C20.6573 6.10181 19.9085 4.97886 18.9652 4.03544C18.0218 3.09202 16.899 2.34334 15.5963 1.78918C14.2932 1.23539 12.9285 0.958262 11.5008 0.958262C10.7721 0.958262 10.0233 1.03819 9.2546 1.19795C8.21641 0.399333 7.04841 0 5.75065 0C4.1635 0 2.80842 0.561447 1.68531 1.68434C0.562101 2.80755 0.000705719 4.16263 0.000705719 5.74983C0.000705719 7.04759 0.400039 8.21559 1.19855 9.25378C1.0389 10.0224 0.958969 10.7712 0.958969 11.4999C0.958969 12.9273 1.23589 14.2924 1.78989 15.5953C2.34384 16.898 3.09258 18.0209 4.03605 18.9645C4.97942 19.9078 6.10252 20.6563 7.40521 21.2105C8.708 21.7646 10.0731 22.0415 11.5007 22.0415C12.2293 22.0415 12.9781 21.9615 13.7472 21.8018C14.7851 22.6005 15.953 23 17.2509 23C18.8379 23 20.1933 22.4383 21.3158 21.3154C22.439 20.1922 23.0004 18.8371 23.0004 17.2498C23.0001 15.9522 22.601 14.7844 21.8028 13.746ZM17.0706 15.9696C16.7414 16.5537 16.2995 17.0203 15.7456 17.3698C15.1914 17.7192 14.58 17.9859 13.9113 18.1708C13.2425 18.3553 12.5438 18.4479 11.8149 18.4479C10.1281 18.4479 8.67569 18.1209 7.45771 17.4668C6.23972 16.8128 5.63081 16.027 5.63081 15.1084C5.63081 14.6593 5.75815 14.2853 6.01273 13.9856C6.26726 13.686 6.64409 13.5366 7.14323 13.5366C7.43274 13.5366 7.70216 13.6164 7.95171 13.7759C8.20125 13.9357 8.43081 14.1281 8.64055 14.3528C8.85029 14.5775 9.07722 14.8018 9.32184 15.0266C9.56629 15.2513 9.89073 15.4433 10.295 15.6031C10.6994 15.7628 11.1561 15.8429 11.6653 15.8429C12.3142 15.8429 12.8381 15.7158 13.2378 15.4613C13.6369 15.2065 13.8365 14.8845 13.8365 14.4953C13.8365 14.0958 13.677 13.7964 13.3577 13.5968C13.1383 13.4566 12.579 13.277 11.6805 13.0575L9.49413 12.5181C8.89523 12.3785 8.38109 12.2165 7.95176 12.0319C7.52243 11.8471 7.12309 11.6053 6.75381 11.3056C6.38464 11.0062 6.10509 10.6295 5.91539 10.1751C5.72574 9.72098 5.63092 9.18927 5.63092 8.58036C5.63092 7.85155 5.79817 7.21038 6.13247 6.65617C6.46677 6.10207 6.91126 5.66776 7.4651 5.35333C8.01905 5.03886 8.61553 4.80432 9.25455 4.6496C9.8933 4.49483 10.5522 4.41747 11.231 4.41747C12.1895 4.41747 13.0976 4.53233 13.9562 4.76189C14.8147 4.99145 15.5235 5.32837 16.0823 5.7726C16.6413 6.21698 16.9207 6.7136 16.9207 7.26257C16.9207 7.71162 16.7787 8.09611 16.4939 8.41546C16.2099 8.73476 15.833 8.89451 15.3637 8.89451C15.1041 8.89451 14.8647 8.83457 14.645 8.71478C14.4255 8.59504 14.226 8.45034 14.0459 8.28062C13.8662 8.11101 13.6763 7.94375 13.4768 7.77907C13.2771 7.61438 13.0076 7.47215 12.6685 7.35236C12.3287 7.23257 11.9447 7.17262 11.5154 7.17262C10.0781 7.17262 9.35923 7.55669 9.35923 8.32551C9.35923 8.49513 9.39673 8.64492 9.47152 8.77467C9.54636 8.90443 9.62886 9.00927 9.71855 9.08915C9.80818 9.16913 9.95797 9.2489 10.1677 9.32883C10.3774 9.40881 10.5521 9.46635 10.6919 9.50107C10.8315 9.536 11.0513 9.58839 11.3507 9.6582L12.9081 10.0175C13.3971 10.1274 13.8337 10.2423 14.2183 10.3619C14.6027 10.4819 15.0145 10.6515 15.4537 10.8712C15.8928 11.0908 16.2572 11.3352 16.5466 11.6048C16.8362 11.8746 17.0782 12.2162 17.2731 12.6304C17.4679 13.0448 17.5649 13.5016 17.5649 14.0006C17.5649 14.7293 17.4004 15.3857 17.0706 15.9696Z"/>
    </symbol>
    <symbol id="icon-viber" viewBox="0 0 322 322">
      <title>viber</title>
      <path id="XMLID_8_" d="M275.445,135.123c0.387-45.398-38.279-87.016-86.192-92.771c-0.953-0.113-1.991-0.285-3.09-0.467
		c-2.372-0.393-4.825-0.797-7.3-0.797c-9.82,0-12.445,6.898-13.136,11.012c-0.672,4-0.031,7.359,1.902,9.988
		c3.252,4.422,8.974,5.207,13.57,5.836c1.347,0.186,2.618,0.359,3.682,0.598c43.048,9.619,57.543,24.742,64.627,67.424
		c0.173,1.043,0.251,2.328,0.334,3.691c0.309,5.102,0.953,15.717,12.365,15.717h0.001c0.95,0,1.971-0.082,3.034-0.244
		c10.627-1.615,10.294-11.318,10.134-15.98c-0.045-1.313-0.088-2.555,0.023-3.381C275.429,135.541,275.444,135.332,275.445,135.123z
		"/>
      <path id="XMLID_9_" d="M176.077,25.688c1.275,0.092,2.482,0.18,3.487,0.334c70.689,10.871,103.198,44.363,112.207,115.605
		c0.153,1.211,0.177,2.688,0.202,4.252c0.09,5.566,0.275,17.145,12.71,17.385l0.386,0.004c3.9,0,7.002-1.176,9.221-3.498
		c3.871-4.049,3.601-10.064,3.383-14.898c-0.053-1.186-0.104-2.303-0.091-3.281C318.481,68.729,255.411,2.658,182.614,0.201
		c-0.302-0.01-0.59,0.006-0.881,0.047c-0.143,0.021-0.408,0.047-0.862,0.047c-0.726,0-1.619-0.063-2.566-0.127
		C177.16,0.09,175.862,0,174.546,0c-11.593,0-13.797,8.24-14.079,13.152C159.817,24.504,170.799,25.303,176.077,25.688z"/>
      <path id="XMLID_10_" d="M288.36,233.703c-1.503-1.148-3.057-2.336-4.512-3.508c-7.718-6.211-15.929-11.936-23.87-17.473
		c-1.648-1.148-3.296-2.297-4.938-3.449c-10.172-7.145-19.317-10.617-27.957-10.617c-11.637,0-21.783,6.43-30.157,19.109
		c-3.71,5.621-8.211,8.354-13.758,8.354c-3.28,0-7.007-0.936-11.076-2.783c-32.833-14.889-56.278-37.717-69.685-67.85
		c-6.481-14.564-4.38-24.084,7.026-31.832c6.477-4.396,18.533-12.58,17.679-28.252c-0.967-17.797-40.235-71.346-56.78-77.428
		c-7.005-2.576-14.365-2.6-21.915-0.06c-19.02,6.394-32.669,17.623-39.475,32.471C2.365,64.732,2.662,81.578,9.801,99.102
		c20.638,50.666,49.654,94.84,86.245,131.293c35.816,35.684,79.837,64.914,130.839,86.875c4.597,1.978,9.419,3.057,12.94,3.844
		c1.2,0.27,2.236,0.5,2.991,0.707c0.415,0.113,0.843,0.174,1.272,0.178l0.403,0.002c0.001,0,0,0,0.002,0
		c23.988,0,52.791-21.92,61.637-46.91C313.88,253.209,299.73,242.393,288.36,233.703z"/>
      <path id="XMLID_11_" d="M186.687,83.564c-4.107,0.104-12.654,0.316-15.653,9.021c-1.403,4.068-1.235,7.6,0.5,10.498
		c2.546,4.252,7.424,5.555,11.861,6.27c16.091,2.582,24.355,11.48,26.008,28c0.768,7.703,5.955,13.082,12.615,13.082h0.001
		c0.492,0,0.995-0.029,1.496-0.09c8.01-0.953,11.893-6.838,11.542-17.49c0.128-11.117-5.69-23.738-15.585-33.791
		C209.543,88.98,197.574,83.301,186.687,83.564z"/>
    </symbol>

    <symbol id="icon-share" viewBox="0 0 17 17">
      <title>share</title>
      <path fill-rule="evenodd" clip-rule="evenodd" d="M14.0891 11.0791C13.2587 11.0791 12.5118 11.4343 11.9816 12.0021L5.78555 8.9162C5.80686 8.77196 5.82154 8.62488 5.82154 8.47353C5.82154 8.32645 5.80756 8.18292 5.7873 8.04188L11.9742 4.99047C12.5049 5.5621 13.2549 5.92092 14.0891 5.92092C15.697 5.92092 17 4.59541 17 2.96046C17 1.32516 15.697 0 14.0891 0C12.4811 0 11.1781 1.32516 11.1781 2.96046C11.1781 3.10754 11.1921 3.25072 11.2123 3.39211L5.02612 6.44352C4.49549 5.87189 3.74548 5.51307 2.91129 5.51307C1.30299 5.51307 0 6.83858 0 8.47353C0 10.1088 1.30299 11.434 2.91094 11.434C3.74129 11.434 4.48815 11.0787 5.01843 10.5117L11.2141 13.5972C11.1924 13.7415 11.1778 13.8885 11.1778 14.0395C11.1778 15.6752 12.4808 17 14.0887 17C15.6967 17 16.9997 15.6752 16.9997 14.0395C17 12.4042 15.697 11.0791 14.0891 11.0791Z" />
    </symbol>



    <symbol id="icon-magnifying-glass" viewBox="0 0 32 32">
      <title>magnifying-glass</title>
      <path d="M31.413 28.741l-8.761-8.765c1.571-2.142 2.412-4.732 2.4-7.387-0.030-6.933-5.637-12.549-12.57-12.589-3.318-0.015-6.504 1.298-8.848 3.645s-3.653 5.535-3.633 8.853c0.030 6.934 5.638 12.55 12.571 12.59 2.667 0.011 5.266-0.84 7.409-2.426l0.009-0.007 8.753 8.758c0.473 0.496 1.178 0.697 1.842 0.525s1.182-0.691 1.354-1.355-0.030-1.369-0.527-1.842zM12.563 22.578c-5.546-0.032-10.033-4.524-10.057-10.071-0.015-2.654 1.032-5.204 2.907-7.082s4.423-2.928 7.077-2.917c5.546 0.032 10.033 4.524 10.057 10.071 0.015 2.654-1.032 5.204-2.907 7.082s-4.423 2.928-7.077 2.917z"></path>
    </symbol>
    <symbol id="icon-cross" viewBox="0 0 32 32">
      <title>cross</title>
      <path d="M16 32c8.837 0 16-7.163 16-16s-7.163-16-16-16c-8.837 0-16 7.163-16 16s7.163 16 16 16z"></path>
      <path fill="#fff" style="fill: var(--color2, #fff)" d="M23.020 8.473c0.893 0.893 0.893 2.34 0 3.232l-11.314 11.314c-0.893 0.893-2.34 0.893-3.232 0s-0.893-2.34 0-3.233l11.314-11.314c0.893-0.893 2.34-0.893 3.233 0z"></path>
      <path fill="#fff" style="fill: var(--color2, #fff)" d="M8.474 8.473c-0.893 0.893-0.893 2.34 0 3.232l11.314 11.314c0.893 0.893 2.34 0.893 3.233 0s0.893-2.34 0-3.233l-11.314-11.314c-0.893-0.893-2.34-0.893-3.232 0z"></path>
    </symbol>

    <symbol id="icon-facebook-color" viewBox="0 0 32 32">
      <title>facebook-color</title>
      <path fill="#1976d2" style="fill: var(--color1, #1976d2)" d="M28 0h-24c-2.206 0-4 1.794-4 4v24c0 2.206 1.794 4 4 4h24c2.206 0 4-1.794 4-4v-24c0-2.206-1.794-4-4-4z"></path>
      <path fill="#fafafa" style="fill: var(--color2, #fafafa)" d="M26.977 15.861h-4.849v-4.028c0-1.112 0.869-1.007 1.939-1.007h1.939v-5.035h-3.879c-3.214 0-5.818 2.705-5.818 6.042v4.028h-3.879v5.035h3.879v11.077h5.818v-11.077h2.909z"></path>
    </symbol>
    <symbol id="icon-google-color" viewBox="0 0 33 32">
      <title>google-color</title>
      <path fill="#fbbb00" style="fill: var(--color1, #fbbb00)" d="M7.758 19.141l-1.218 4.048-4.453 0.084c-1.331-2.197-2.086-4.711-2.086-7.382 0-2.583 0.706-5.019 1.957-7.164h0.001l3.965 0.647 1.737 3.507c-0.364 0.943-0.562 1.956-0.562 3.009 0 1.143 0.233 2.239 0.66 3.25z"></path>
      <path fill="#518ef8" style="fill: var(--color2, #518ef8)" d="M32.675 11.636c0.194 1.032 0.294 2.097 0.294 3.186 0 1.221-0.127 2.412-0.369 3.561-0.821 3.909-2.964 7.323-5.935 9.738l-0.001-0.001-4.809-0.248-0.681-4.299c1.971-1.169 3.511-2.999 4.322-5.19h-9.013v-6.746h16.19z"></path>
      <path fill="#28b446" style="fill: var(--color3, #28b446)" d="M26.181 28.492l0.001 0.001c-2.757 2.194-6.259 3.507-10.072 3.507-6.127 0-11.453-3.391-14.171-8.38l5.214-4.226c1.359 3.59 4.856 6.146 8.957 6.146 1.763 0 3.414-0.472 4.831-1.295l5.24 4.248z"></path>
      <path fill="#f14336" style="fill: var(--color4, #f14336)" d="M26.182 3.597l-5.145 4.144c-1.448-0.89-3.159-1.404-4.992-1.404-4.14 0-7.657 2.622-8.931 6.27l-5.175-4.167c2.643-5.014 7.968-8.439 14.106-8.439 3.853 0 7.386 1.35 10.137 3.597z"></path>
    </symbol>
    <symbol id="icon-telegram-color" viewBox="0 0 32 32">
      <title>telegram-color</title>
      <path fill="#41b4e6" style="fill: var(--color3, #41b4e6)" d="M16 32c8.837 0 16-7.163 16-16s-7.163-16-16-16c-8.837 0-16 7.163-16 16s7.163 16 16 16z"></path>
      <path fill="#0091c8" style="fill: var(--color4, #0091c8)" d="M32 15.929c0-0.397-0.014-0.79-0.041-1.18l-6.517-6.749-18.331 7.468 7.014 7.264 0.092 0.343 0.119-0.124 0.001 0-0.12 0.124 7.758 8.036c5.867-2.364 10.025-8.27 10.025-15.182z"></path>
      <path fill="#fff" style="fill: var(--color5, #fff)" d="M14.001 18.705l7.236 5.295 3.653-15.111-18.667 7.116 5.68 1.823 10.366-6.739-8.268 7.616z"></path>
      <path fill="#d2d2d7" style="fill: var(--color6, #d2d2d7)" d="M12.444 17.561l1.601 5.55 0.559-4.654 8.507-7.791-10.667 6.894z"></path>
      <path fill="#b9b9be" style="fill: var(--color7, #b9b9be)" d="M16 20.684l-2.667 3.316 0.5-5.333 2.167 2.018z"></path>
    </symbol>

    <symbol id="icon-contacts-chevron-left" viewBox="0 0 32 32">
      <title>contacts-chevron-left</title>
      <path d="M22.561 31.669c0.218 0.221 0.491 0.331 0.791 0.331s0.573-0.11 0.791-0.331c0.436-0.441 0.436-1.159 0-1.6l-13.913-14.069 13.913-14.069c0.436-0.441 0.436-1.159 0-1.6s-1.146-0.441-1.582 0l-14.704 14.869c-0.436 0.441-0.436 1.159 0 1.6l14.704 14.869z"></path>
    </symbol>
    <symbol id="icon-contacts-chevron-right" viewBox="0 0 32 32">
      <title>contacts-chevron-right</title>
      <path d="M9.439 31.669c-0.218 0.221-0.491 0.331-0.791 0.331s-0.573-0.11-0.791-0.331c-0.436-0.441-0.436-1.159 0-1.6l13.913-14.069-13.913-14.069c-0.436-0.441-0.436-1.159 0-1.6s1.146-0.441 1.582 0l14.704 14.869c0.436 0.441 0.436 1.159 0 1.6l-14.704 14.869z"></path>
    </symbol>
    <symbol id="icon-contacts-envelope" viewBox="0 0 32 32">
      <title>contacts-envelope</title>
      <path d="M2.518 5.912l11.467 9.249c0.52 0.419 1.237 0.605 1.933 0.57 0.695 0.035 1.412-0.15 1.931-0.57l11.467-9.249c0.919-0.737 0.711-1.341-0.455-1.341h-25.886c-1.167 0-1.375 0.604-0.458 1.341z"></path>
      <path d="M30.145 8.352l-12.532 9.687c-0.468 0.358-1.082 0.533-1.694 0.525-0.613 0.008-1.226-0.168-1.695-0.525l-12.534-9.687c-0.93-0.718-1.691-0.333-1.691 0.855v15.894c0 1.188 0.955 2.161 2.122 2.161h27.592c1.167 0 2.122-0.973 2.122-2.161v-15.894c0-1.188-0.761-1.573-1.691-0.855z"></path>
    </symbol>
    <symbol id="icon-contacts-menu" viewBox="0 0 32 32">
      <title>contacts-menu</title>
      <path d="M3.048 12.952h25.905c1.683 0 3.048 1.364 3.048 3.048s-1.364 3.048-3.048 3.048h-25.905c-1.683 0-3.048-1.364-3.048-3.048s1.364-3.048 3.048-3.048z"></path>
      <path d="M3.048 0.762h25.905c1.683 0 3.048 1.364 3.048 3.048s-1.364 3.048-3.048 3.048h-25.905c-1.683 0-3.048-1.364-3.048-3.048s1.364-3.048 3.048-3.048z"></path>
      <path d="M3.048 25.143h25.905c1.683 0 3.048 1.364 3.048 3.048s-1.364 3.048-3.048 3.048h-25.905c-1.683 0-3.048-1.364-3.048-3.048s1.364-3.048 3.048-3.048z"></path>
    </symbol>
    <symbol id="icon-contacts-pause" viewBox="0 0 32 32">
      <title>contacts-pause</title>
      <path d="M3.2 0h25.6c1.767 0 3.2 1.433 3.2 3.2v6.4c0 1.767-1.433 3.2-3.2 3.2h-25.6c-1.767 0-3.2-1.433-3.2-3.2v-6.4c0-1.767 1.433-3.2 3.2-3.2z"></path>
      <path d="M3.2 19.2h25.6c1.767 0 3.2 1.433 3.2 3.2v6.4c0 1.767-1.433 3.2-3.2 3.2h-25.6c-1.767 0-3.2-1.433-3.2-3.2v-6.4c0-1.767 1.433-3.2 3.2-3.2z"></path>
    </symbol>
    <symbol id="icon-plus" viewBox="0 0 32 32">
      <title>plus</title>
      <path d="M31.407 15.338c0 1.694-1.373 3.068-3.068 3.068h-9.495v9.13c0 1.735-1.406 3.141-3.141 3.141s-3.141-1.406-3.141-3.141v-9.13h-9.495c-1.694 0-3.068-1.373-3.068-3.068s1.373-3.068 3.068-3.068h9.495v-9.13c0-1.735 1.406-3.141 3.141-3.141s3.141 1.406 3.141 3.141v9.13h9.495c1.694 0 3.068 1.373 3.068 3.068z"></path>
    </symbol>
    <symbol id="icon-video-cam" viewBox="0 0 18 12">
      <title>icon-video-cam</title>
      <path d="M17.6081 0.346753C17.5211 0.315559 17.4374 0.299896 17.357 0.299896C17.1761 0.299896 17.0256 0.359396 16.905 0.478067L12.857 4.24691V2.70005C12.857 1.9562 12.5741 1.32036 12.0082 0.792181C11.4423 0.264071 10.7611 0 9.96407 0H2.89278C2.09599 0 1.41459 0.264071 0.848654 0.792181C0.282932 1.32036 0 1.9562 0 2.70005V9.30005C0 10.0438 0.282932 10.6796 0.848689 11.2078C1.41462 11.7359 2.09602 12 2.89282 12H9.96414C10.7611 12 11.4424 11.7359 12.0083 11.2078C12.5741 10.6796 12.8571 10.0439 12.8571 9.30005V7.7437L16.9051 11.5219C17.0257 11.6405 17.1762 11.7 17.3571 11.7C17.4375 11.7 17.5212 11.6844 17.6082 11.6532C17.8695 11.547 18 11.3626 18 11.1001V0.900016C17.9999 0.637389 17.8694 0.453045 17.6081 0.346753Z"/>
    </symbol>
    <symbol id="icon-reset" viewBox="0 0 20 20">
      <title>icon-reset</title>
      <path d="M19 2.04326L17.9565 1L10 8.957L2.04347 1L1 2.04326L8.95653 10.0003L1 17.9568L2.04347 19L10 11.0436L17.9565 19L19 17.9568L11.0429 10.0003L19 2.04326Z" />
    </symbol>
    <symbol id="icon-checked-in" viewBox="0 0 23 16">
      <title>icon-checked-in</title>
      <path d="M22.6632 0.319082C22.2141 -0.106361 21.486 -0.106361 21.0368 0.319082L7.25912 13.3703L1.9632 8.35369C1.51411 7.92824 0.78602 7.92829 0.336846 8.35369C-0.112282 8.77909 -0.112282 9.46878 0.336846 9.89422L6.44594 15.6811C6.89489 16.1065 7.62353 16.1062 8.07229 15.6811L22.6632 1.85966C23.1123 1.43426 23.1123 0.744525 22.6632 0.319082Z"/>
    </symbol>
    <symbol id="icon-video-camera" viewBox="0 0 48 32">
      <title>video-camera</title>
      <path d="M46.955 0.925c-0.232-0.083-0.455-0.125-0.67-0.125-0.482 0-0.884 0.159-1.205 0.475l-10.795 10.050v-4.125c0-1.984-0.754-3.679-2.263-5.088s-3.326-2.112-5.451-2.112h-18.857c-2.125 0-3.942 0.704-5.451 2.112s-2.263 3.104-2.263 5.088v17.6c0 1.983 0.754 3.679 2.263 5.087s3.326 2.113 5.451 2.113h18.857c2.125 0 3.942-0.704 5.451-2.113s2.263-3.104 2.263-5.087v-4.15l10.795 10.075c0.322 0.316 0.723 0.475 1.205 0.475 0.214 0 0.438-0.042 0.67-0.125 0.697-0.283 1.045-0.775 1.045-1.475v-27.2c-0-0.7-0.348-1.192-1.045-1.475z"></path>
    </symbol>
    <symbol id="icon-photo-camera" viewBox="0 0 44 32">
      <title>photo-camera</title>
      <path d="M34.32 6c-0.726 0-1.508-0.512-1.738-1.138l-1.365-3.724c-0.23-0.626-1.012-1.138-1.738-1.138h-14.96c-0.726 0-1.508 0.512-1.738 1.138l-1.365 3.724c-0.23 0.626-1.012 1.138-1.738 1.138h-5.28c-2.42 0-4.4 1.8-4.4 4v18c0 2.2 1.98 4 4.4 4h35.2c2.42 0 4.4-1.8 4.4-4v-18c0-2.2-1.98-4-4.4-4h-5.28zM15.4 18c0 3.314 2.955 6 6.6 6s6.6-2.686 6.6-6c0-3.313-2.955-6-6.6-6s-6.6 2.687-6.6 6zM22 28c-6.075 0-11-4.477-11-10s4.925-10 11-10c6.074 0 11 4.478 11 10s-4.926 10-11 10zM36.52 11.397c0-0.773 0.69-1.4 1.54-1.4s1.54 0.627 1.54 1.4c0 0.774-0.689 1.4-1.54 1.4s-1.54-0.626-1.54-1.4z"></path>
    </symbol>
    <symbol id="icon-confirm" viewBox="0 0 46 32">
      <title>confirm</title>
      <path d="M45.326 0.638c-0.898-0.851-2.354-0.851-3.253 0l-27.555 26.102-10.592-10.033c-0.898-0.851-2.354-0.851-3.253 0s-0.898 2.23 0 3.081l12.218 11.574c0.898 0.851 2.355 0.85 3.253 0l29.182-27.643c0.898-0.851 0.898-2.23 0-3.081z"></path>
    </symbol>
    <symbol id="icon-cancel" viewBox="0 0 32 32">
      <title>cancel</title>
      <path stroke-linejoin="round" stroke-linecap="round" stroke-miterlimit="4" stroke-width="1.6" d="M30.4 3.269l-1.67-1.669-12.73 12.731-12.73-12.731-1.67 1.669 12.73 12.731-12.73 12.73 1.67 1.669 12.73-12.73 12.73 12.73 1.67-1.669-12.731-12.73 12.731-12.731z"></path>
    </symbol>
    <!-- xcard -->
    <symbol id="icon-xcard" viewBox="0 0 59 32">
      <title>xcard</title>
      <path d="M16.472 12.94l-3.696 4.27-9.167-9.399c-0.917-0.918-0.262-2.492 1.048-2.492h4.758c0.437 0 0.844 0.189 1.12 0.525l5.937 7.097z"></path>
      <path d="M15.788 20.313l4.002-3.526 7.727 7.84c0.989 1.005 0.276 2.696-1.12 2.696h-4.060c-0.466 0-0.917-0.204-1.222-0.568l-5.326-6.441z"></path>
      <path d="M33.686 2.856l-33.264 29.071c-0.233 0.204-0.568-0.117-0.364-0.364l26.513-30.995c0.306-0.364 0.757-0.568 1.237-0.568h4.816c1.499 0 2.197 1.865 1.062 2.856z"></path>
      <path d="M15.017 11.090c-0.815-0.015-1.819 0.029-2.954 0.248-1.572 0.306-2.823 0.831-3.711 1.282-1.557-1.603-3.114-3.206-4.671-4.794-0.902-0.933-0.247-2.506 1.048-2.506h4.773c0.437 0 0.844 0.189 1.12 0.525l4.394 5.246z"></path>
      <path d="M33.701 2.856l-6.796 5.829c-1.12 0.612-2.867 1.384-5.093 1.72-1.484 0.219-2.779 0.189-3.783 0.102 2.881-3.308 5.748-6.63 8.629-9.938 0.306-0.35 0.757-0.554 1.222-0.554h4.758c1.513-0.015 2.212 1.865 1.062 2.842z"></path>
      <path d="M31.591 11.366c0.873 0 1.717 0.189 2.415 0.568 0 0.874-0.757 1.545-1.615 1.443-0.16-0.015-0.32-0.029-0.466-0.029-1.237 0-2.43 0.612-2.43 2.186 0 1.501 1.179 2.186 2.401 2.186 0.189 0 0.378-0.015 0.568-0.029 0.873-0.102 1.644 0.583 1.644 1.472-0.771 0.321-1.644 0.525-2.648 0.525-2.139 0-4.278-1.239-4.278-4.036-0.015-3.016 2.241-4.284 4.409-4.284z"></path>
      <path d="M42.635 17.443v-2.506c0-2.594-1.499-3.556-3.856-3.556-1.208 0-2.401 0.306-3.041 0.525 0 0.918 0.815 1.617 1.717 1.472 0.335-0.058 0.698-0.087 1.062-0.087 1.222 0 1.848 0.539 1.848 1.326v0.277c-0.553-0.131-1.237-0.219-1.863-0.219-1.572 0-3.449 0.627-3.449 2.623 0 1.559 1.281 2.404 2.75 2.404 1.164 0 2.052-0.364 2.823-0.962 0.32 0.583 0.931 0.889 1.732 0.889 0.087 0 0.189 0 0.276-0.015v-2.084c0-0.044 0-0.073 0-0.087zM40.351 17.443c-0.524 0.452-1.12 0.641-1.761 0.641-0.684 0-1.222-0.379-1.222-0.962 0-0.801 0.815-1.078 1.644-1.078 0.466 0 1.004 0.102 1.339 0.175v1.224z"></path>
      <path d="M49.867 11.439v0.627c0 0.758-0.509 1.443-1.251 1.603-0.728 0.16-1.339 0.568-1.644 1.18v4.619h-2.27v-7.854h2.008v1.18c0.538-0.874 1.688-1.501 3.158-1.355z"></path>
      <path d="M59.151 9.676v9.792h-0.844c-0.626 0-1.15-0.51-1.15-1.151-0.509 0.699-1.411 1.37-2.838 1.37-2.503 0-3.842-2.011-3.842-4.153s1.339-4.153 3.842-4.153c1.237 0 2.081 0.51 2.576 1.064v-4.43h0.597c0.917 0 1.659 0.743 1.659 1.661zM54.859 13.29c-1.295 0-2.066 1.020-2.066 2.244s0.771 2.244 2.066 2.244c1.004 0 1.732-0.627 2.037-1.311v-1.865c-0.306-0.685-1.048-1.312-2.037-1.312z"></path>
    </symbol>
    <!--      Xqr-->

    <symbol id="icon-xqr" viewBox="0 0 174 174">
      <title>xqr</title>
      <path d="M117.678 103.454C115.154 104.669 111.976 105.23 108.424 105.23C95.0589 105.23 88.3293 96.1636 88.3293 85.6955C88.3293 75.2274 95.0589 66.1612 108.424 66.1612C121.79 66.1612 128.519 75.2274 128.519 85.6955C128.519 90.1818 127.304 94.3878 124.781 97.7525L128.519 101.491L126.089 103.641C123.659 105.884 119.921 105.791 117.678 103.454ZM108.424 96.1636C109.079 96.1636 109.733 96.0702 110.294 96.0702L106.929 92.7054L109.079 90.5557C111.415 88.2191 115.154 88.2191 117.491 90.5557C118.051 89.1537 118.332 87.4713 118.332 85.6955C118.332 79.7137 114.874 75.1339 108.424 75.1339C101.975 75.1339 98.5171 79.7137 98.5171 85.6955C98.5171 91.6773 101.882 96.1636 108.424 96.1636Z" fill="#0D0F0F"/>
      <path d="M133.66 104.482V75.9751C133.66 71.0214 137.679 67.0024 142.633 67.0024H149.456C157.026 67.0024 164.784 69.7129 164.784 79.6202C164.784 85.789 161.7 89.2472 157.587 90.8361L167.962 104.482H162.073C158.709 104.482 155.624 102.893 153.662 100.183L147.867 92.2381H143.567V94.5747C143.567 100.089 139.174 104.482 133.66 104.482ZM143.567 84.2935H149.923C152.727 84.2935 154.69 82.8915 154.69 79.9941C154.69 77.0967 152.727 75.6947 149.923 75.6947H146.839C145.063 75.6947 143.661 77.0967 143.661 78.8725V84.2935H143.567Z" fill="#0D0F0F"/>
      <path d="M57.8595 77.4705L46.1763 90.8361L17.4824 61.4879C14.585 58.5905 16.7347 53.6368 20.7537 53.6368H35.7082C37.1102 53.6368 38.3252 54.1976 39.2599 55.3192L57.8595 77.4705Z" fill="#0D0F0F"/>
      <path d="M55.7098 100.557L68.2342 89.5276L92.4418 114.109C95.5261 117.193 93.283 122.521 88.8901 122.521H76.1788C74.6833 122.521 73.2813 121.867 72.3467 120.745L55.7098 100.557Z" fill="#0D0F0F"/>
      <path d="M111.789 45.8792L7.48167 136.915C6.73395 137.569 5.70583 136.541 6.36009 135.793L89.4509 38.7758C90.3855 37.6543 91.7875 37 93.283 37H108.424C113.098 37 115.341 42.7949 111.789 45.8792Z" fill="#0D0F0F"/>

    </symbol>
    <symbol id="icon-contacts-users" viewBox="0 0 43 32">
      <title>contacts-users</title>
      <path d="M20.554 16c3.467 0 6.277-3.582 6.277-8s-0.923-8-6.277-8c-5.354 0-6.277 3.582-6.277 8s2.81 8 6.277 8z"></path>
      <path d="M10.094 28.16c-0.004-0.623-0.007-0.176 0 0v0z"></path>
      <path d="M33.105 28.16c0.012-0.096 0.004-0.669 0 0v0z"></path>
      <path d="M33.094 27.207c-0.123-7.648-1.137-9.828-8.9-11.207 0 0-1.093 1.371-3.64 1.371s-3.64-1.371-3.64-1.371c-7.678 1.364-8.754 3.511-8.895 10.959-0.012 0.608-0.017 0.64-0.019 0.569 0 0.132 0.001 0.377 0.001 0.804 0 0 1.848 3.668 12.553 3.668s12.553-3.668 12.553-3.668c0-0.274 0-0.465 0-0.594-0.002 0.044-0.006-0.041-0.014-0.53z"></path>
      <path d="M35.022 13.6c2.16 0 3.911-2.328 3.911-5.2s-0.575-5.2-3.911-5.2c-3.336 0-3.911 2.328-3.911 5.2s1.751 5.2 3.911 5.2z"></path>
      <path d="M29.157 22.024c-0.002-0.405-0.005-0.114 0 0v0z"></path>
      <path d="M42.843 22.024c0.007-0.063 0.002-0.435 0 0v0z"></path>
      <path d="M42.836 20.884c-0.077-4.971-0.709-6.388-5.545-7.284 0 0-0.681 0.891-2.268 0.891s-2.268-0.891-2.268-0.891c-4.784 0.887-5.455 2.282-5.543 7.123-0.007 0.395-0.011 0.416-0.012 0.37 0 0.086 0.001 0.245 0.001 0.522 0 0 1.152 2.384 7.822 2.384s7.822-2.384 7.822-2.384c0-0.178 0-0.302 0-0.386-0.001 0.028-0.004-0.027-0.009-0.345z"></path>
      <path d="M7.822 13.6c2.16 0 3.911-2.328 3.911-5.2s-0.575-5.2-3.911-5.2-3.911 2.328-3.911 5.2c0 2.872 1.751 5.2 3.911 5.2z"></path>
      <path d="M1.957 22.024c-0.002-0.405-0.005-0.114 0 0v0z"></path>
      <path d="M15.642 22.024c0.007-0.063 0.003-0.435 0 0v0z"></path>
      <path d="M15.636 20.884c-0.077-4.971-0.709-6.388-5.546-7.284 0 0-0.681 0.891-2.268 0.891s-2.268-0.891-2.268-0.891c-4.784 0.887-5.454 2.282-5.543 7.123-0.007 0.395-0.011 0.416-0.012 0.37 0 0.086 0.001 0.245 0.001 0.522 0 0 1.151 2.384 7.822 2.384s7.822-2.384 7.822-2.384c0-0.178 0-0.302 0-0.386-0.001 0.028-0.004-0.027-0.009-0.345z"></path>
    </symbol>
    <symbol id="icon-arc-10" viewBox="0 0 32 32">
      <title>arc-10</title>
      <path fill="#c4c4c4" style="fill: var(--color1, #c4c4c4)" d="M16 0c-8.809 0-16 7.191-16 16s7.191 16 16 16c8.809 0 16-7.191 16-16s-7.191-16-16-16zM16 4.646c6.299 0 11.354 5.056 11.354 11.354s-5.056 11.354-11.354 11.354c-6.299 0-11.354-5.056-11.354-11.354s5.056-11.354 11.354-11.354z"></path>
      <path d="M22.754 6.871c0.387-0.533 2.667-3.671 2.712-3.733-2.64-1.95-5.885-3.121-9.401-3.135v4.646c2.514 0.014 4.82 0.84 6.69 2.222z"></path>
    </symbol>
    <symbol id="icon-arc-20" viewBox="0 0 32 32">
      <title>arc-20</title>
      <path fill="#c4c4c4" style="fill: var(--color1, #c4c4c4)" d="M16 0c-8.809 0-16 7.191-16 16s7.191 16 16 16c8.809 0 16-7.191 16-16s-7.191-16-16-16zM16 4.646c6.299 0 11.354 5.056 11.354 11.354s-5.056 11.354-11.354 11.354c-6.299 0-11.354-5.056-11.354-11.354s5.056-11.354 11.354-11.354z"></path>
      <path d="M26.801 12.49c0.623-0.202 4.337-1.409 4.406-1.431-2.092-6.404-8.122-11.058-15.207-11.058-0.015 0-0.030 0.002-0.046 0.002v4.646c0.015-0 0.030-0.002 0.046-0.002 5.071 0 9.331 3.28 10.801 7.844z"></path>
    </symbol>
    <symbol id="icon-arc-30" viewBox="0 0 32 32">
      <title>arc-30</title>
      <path fill="#c4c4c4" style="fill: var(--color1, #c4c4c4)" d="M16 0c-8.809 0-16 7.191-16 16s7.191 16 16 16c8.809 0 16-7.191 16-16s-7.191-16-16-16zM16 4.646c6.299 0 11.354 5.056 11.354 11.354s-5.056 11.354-11.354 11.354c-6.299 0-11.354-5.056-11.354-11.354s5.056-11.354 11.354-11.354z"></path>
      <path d="M26.785 19.555c0.646 0.21 4.329 1.406 4.406 1.431 0.519-1.572 0.81-3.245 0.81-4.987 0-8.788-7.156-15.961-15.936-15.997v4.646c6.268 0.035 11.29 5.074 11.29 11.351 0 1.245-0.204 2.437-0.57 3.555z"></path>
    </symbol>
    <symbol id="icon-arc-40" viewBox="0 0 32 32">
      <title>arc-40</title>
      <path fill="#c4c4c4" style="fill: var(--color1, #c4c4c4)" d="M16 0c-8.809 0-16 7.191-16 16s7.191 16 16 16c8.809 0 16-7.191 16-16s-7.191-16-16-16zM16 4.646c6.299 0 11.354 5.056 11.354 11.354s-5.056 11.354-11.354 11.354c-6.299 0-11.354-5.056-11.354-11.354s5.056-11.354 11.354-11.354z"></path>
      <path d="M22.712 25.16c0.403 0.555 2.662 3.665 2.712 3.733 3.975-2.916 6.576-7.606 6.576-12.893 0-8.77-7.128-15.931-15.884-15.994v4.645c6.244 0.062 11.239 5.089 11.239 11.349 0 3.778-1.827 7.099-4.642 9.16z"></path>
    </symbol>
    <symbol id="icon-arc-50" viewBox="0 0 32 32">
      <title>arc-50</title>
      <path fill="#c4c4c4" style="fill: var(--color1, #c4c4c4)" d="M16 0c-8.809 0-16 7.191-16 16s7.191 16 16 16c8.809 0 16-7.191 16-16s-7.191-16-16-16zM16 4.646c6.299 0 11.354 5.056 11.354 11.354s-5.056 11.354-11.354 11.354c-6.299 0-11.354-5.056-11.354-11.354s5.056-11.354 11.354-11.354z"></path>
      <path d="M16.035 27.352v4.646c8.793-0.019 15.965-7.201 15.965-15.998s-7.172-15.979-15.965-15.998v4.646c6.282 0.019 11.319 5.066 11.319 11.353s-5.037 11.333-11.319 11.352z"></path>
    </symbol>
    <symbol id="icon-arc-60" viewBox="0 0 32 32">
      <title>arc-60</title>
      <path fill="#c4c4c4" style="fill: var(--color1, #c4c4c4)" d="M16 0c-8.809 0-16 7.191-16 16s7.191 16 16 16c8.809 0 16-7.191 16-16s-7.191-16-16-16zM16 4.646c6.299 0 11.354 5.056 11.354 11.354s-5.056 11.354-11.354 11.354c-6.299 0-11.354-5.056-11.354-11.354s5.056-11.354 11.354-11.354z"></path>
      <path d="M9.474 25.299c-0.398 0.548-2.665 3.668-2.712 3.733 2.614 1.861 5.799 2.968 9.238 2.968 8.809 0 16-7.191 16-16 0-8.775-7.137-15.94-15.9-15.995v4.646c6.251 0.054 11.254 5.085 11.254 11.349 0 6.299-5.056 11.354-11.354 11.354-2.437 0-4.682-0.763-6.526-2.055z"></path>
    </symbol>
    <symbol id="icon-arc-70" viewBox="0 0 32 32">
      <title>arc-70</title>
      <path fill="#c4c4c4" style="fill: var(--color1, #c4c4c4)" d="M16 0c-8.809 0-16 7.191-16 16s7.191 16 16 16c8.809 0 16-7.191 16-16s-7.191-16-16-16zM16 4.646c6.299 0 11.354 5.056 11.354 11.354s-5.056 11.354-11.354 11.354c-6.299 0-11.354-5.056-11.354-11.354s5.056-11.354 11.354-11.354z"></path>
      <path d="M5.198 19.508c-0.623 0.202-4.338 1.409-4.406 1.431 2.091 6.405 8.122 11.061 15.208 11.061 8.809 0 16-7.191 16-16 0-8.79-7.16-15.966-15.943-15.997v4.645c6.272 0.031 11.297 5.072 11.297 11.352 0 6.299-5.056 11.354-11.354 11.354-5.072 0-9.333-3.281-10.802-7.847z"></path>
    </symbol>
    <symbol id="icon-arc-80" viewBox="0 0 32 32">
      <title>arc-80</title>
      <path fill="#c4c4c4" style="fill: var(--color1, #c4c4c4)" d="M16 0c-8.809 0-16 7.191-16 16s7.191 16 16 16c8.809 0 16-7.191 16-16s-7.191-16-16-16zM16 4.646c6.299 0 11.354 5.056 11.354 11.354s-5.056 11.354-11.354 11.354c-6.299 0-11.354-5.056-11.354-11.354s5.056-11.354 11.354-11.354z"></path>
      <path d="M5.201 12.482c-0.63-0.205-4.335-1.409-4.406-1.432-0.511 1.561-0.796 3.222-0.796 4.949 0 8.809 7.191 16 16 16s16-7.191 16-16c0-8.796-7.169-15.976-15.96-15.998v4.646c6.28 0.022 11.314 5.067 11.314 11.352 0 6.299-5.056 11.354-11.354 11.354s-11.354-5.056-11.354-11.354c0-1.23 0.198-2.411 0.556-3.518z"></path>
    </symbol>
    <symbol id="icon-arc-90" viewBox="0 0 32 32">
      <title>arc-90</title>
      <path fill="#c4c4c4" style="fill: var(--color1, #c4c4c4)" d="M16 0c-8.809 0-16 7.191-16 16s7.191 16 16 16c8.809 0 16-7.191 16-16s-7.191-16-16-16zM16 4.646c6.299 0 11.354 5.056 11.354 11.354s-5.056 11.354-11.354 11.354c-6.299 0-11.354-5.056-11.354-11.354s5.056-11.354 11.354-11.354z"></path>
      <path d="M9.264 6.857c-0.377-0.519-2.672-3.677-2.712-3.733-3.962 2.918-6.552 7.599-6.552 12.876 0 8.809 7.191 16 16 16s16-7.191 16-16c0-8.792-7.164-15.97-15.95-15.997v4.645c6.275 0.027 11.304 5.070 11.304 11.352 0 6.299-5.056 11.354-11.354 11.354s-11.354-5.056-11.354-11.354c0-3.768 1.817-7.081 4.619-9.143z"></path>
    </symbol>
    <symbol id="icon-arc-100" viewBox="0 0 32 32">
      <title>arc-100</title>
      <path fill="#c4c4c4" style="fill: var(--color1, #c4c4c4)" d="M16 0c-8.809 0-16 7.191-16 16s7.191 16 16 16c8.809 0 16-7.191 16-16s-7.191-16-16-16zM16 4.646c6.299 0 11.354 5.056 11.354 11.354s-5.056 11.354-11.354 11.354c-6.299 0-11.354-5.056-11.354-11.354s5.056-11.354 11.354-11.354z"></path>
      <path d="M16 0c-8.809 0-16 7.191-16 16s7.191 16 16 16c8.809 0 16-7.191 16-16s-7.191-16-16-16zM16 4.646c6.299 0 11.354 5.056 11.354 11.354s-5.056 11.354-11.354 11.354c-6.299 0-11.354-5.056-11.354-11.354s5.056-11.354 11.354-11.354z"></path>
    </symbol>
    <symbol id="icon-check" viewBox="0 0 20 20">
      <title>check</title>
      <path d="M8.294 16.998c-0.435 0-0.847-0.203-1.111-0.553l-3.573-4.721c-0.465-0.613-0.344-1.486 0.27-1.951 0.615-0.467 1.488-0.344 1.953 0.27l2.351 3.104 5.911-9.492c0.407-0.652 1.267-0.852 1.921-0.445s0.854 1.266 0.446 1.92l-6.984 11.21c-0.242 0.391-0.661 0.635-1.12 0.656-0.022 0.002-0.042 0.002-0.064 0.002z"></path>
    </symbol>

    <symbol id="icon-plusCircle" viewBox="0 0 43 32">
      <title>plusCircle</title>
      <path d="M0 21C0 9.45 9.675 0 21.5 0C33.325 0 43 9.45 43 21C43 32.55 33.325 42 21.5 42C9.675 42 0 32.55 0 21ZM28.2278 22.6333C29.1298 22.6333 29.8611 21.9021 29.8611 21C29.8611 20.0979 29.1298 19.3667 28.2278 19.3667H23.1722V14.5056C23.1722 13.582 22.4235 12.8333 21.5 12.8333C20.5765 12.8333 19.8278 13.582 19.8278 14.5056V19.3667H14.7722C13.8702 19.3667 13.1389 20.0979 13.1389 21C13.1389 21.9021 13.8702 22.6333 14.7722 22.6333H19.8278V27.4944C19.8278 28.418 20.5765 29.1667 21.5 29.1667C22.4235 29.1667 23.1722 28.418 23.1722 27.4944V22.6333H28.2278Z"/>
    </symbol>

    <symbol id="icon-photo-camera" viewBox="0 0 22 16">
      <title>photo-camera</title>
      <path fill-rule="evenodd" clip-rule="evenodd" d="M17.16 3H19.8C21.01 3 22 3.9 22 5V14C22 15.1 21.01 16 19.8 16H2.2C0.99 16 0 15.1 0 14V5C0 3.9 0.99 3 2.2 3H4.84C5.203 3 5.59372 2.744 5.70878 2.431L6.39122 0.5692C6.50584 0.256 6.897 0 7.26 0H14.74C15.103 0 15.4937 0.256 15.6088 0.569L16.2912 2.4308C16.4058 2.744 16.797 3 17.16 3ZM7.7 9C7.7 7.3436 9.1773 6 11 6C12.8223 6 14.3 7.3436 14.3 9C14.3 10.657 12.8223 12 11 12C9.1773 12 7.7 10.657 7.7 9ZM11 14C7.96246 14 5.5 11.7614 5.5 9C5.5 6.2388 7.96246 4 11 4C14.0371 4 16.5 6.2388 16.5 9C16.5 11.7614 14.0371 14 11 14ZM18.26 5.6986C18.26 6.0854 18.605 6.3986 19.03 6.3986C19.4553 6.3986 19.8 6.0854 19.8 5.6986C19.8 5.3122 19.4555 4.9986 19.03 4.9986C18.605 4.9986 18.26 5.3122 18.26 5.6986Z"/>

    </symbol>

    <symbol id="icon-car" viewBox="0 0 21 17">
      <title>car</title>
      <path d="M19.4577 9.36071L17.0526 6.15399L15.4493 1.98526C15.2087 1.34391 14.6476 1.02324 13.9261 0.943073C11.521 0.702569 9.35649 0.702569 7.11178 0.943073C6.47044 1.02324 5.8291 1.34391 5.58859 1.98526L3.98523 6.15399L1.58019 9.36071C1.33969 9.60121 1.25952 10.0021 1.25952 10.3227V13.7699V15.3733C1.25952 15.8543 1.58019 16.175 2.0612 16.175H2.86288C3.34389 16.175 3.66456 15.8543 3.66456 15.3733V13.7699H17.2931V15.3733C17.2931 15.8543 17.6138 16.175 18.0948 16.175H18.8965C19.3775 16.175 19.6982 15.8543 19.6982 15.3733V13.7699V10.3227C19.7783 10.0021 19.6982 9.60121 19.4577 9.36071Z" stroke="#1A76D0" stroke-miterlimit="10" stroke-linecap="round" stroke-linejoin="round"/>
      <path d="M14.9683 11.3651H16.732C17.1328 11.3651 17.3733 11.0444 17.3733 10.7237V9.76172" stroke="#1A76D0" stroke-miterlimit="10" stroke-linecap="round" stroke-linejoin="round"/>
      <path d="M6.14967 11.3651H4.38597C3.98513 11.3651 3.74463 11.0444 3.74463 10.7237V10.5634V9.76172" stroke="#1A76D0" stroke-miterlimit="10" stroke-linecap="round" stroke-linejoin="round"/>
      <path d="M3.74463 6.55469C8.55471 6.55469 11.7614 6.55469 17.3732 6.55469" stroke="#1A76D0" stroke-miterlimit="10" stroke-linecap="round" stroke-linejoin="round"/>
      <path d="M3.74464 6.55453H2.14128C1.66027 6.55453 1.3396 6.23386 1.3396 5.75285C1.3396 5.27184 1.66027 4.95117 2.14128 4.95117H4.54632L3.74464 6.55453Z" stroke="#1A76D0" stroke-miterlimit="10" stroke-linecap="round" stroke-linejoin="round"/>
      <path d="M17.3732 6.55453H18.9766C19.4576 6.55453 19.7783 6.23386 19.7783 5.75285C19.7783 5.27184 19.4576 4.95117 18.9766 4.95117H16.5715L17.3732 6.55453Z" stroke="#1A76D0" stroke-miterlimit="10" stroke-linecap="round" stroke-linejoin="round"/>
    </symbol>
    <symbol id="icon-business" viewBox="0 0 22 19">
      <title>business</title>
      <path d="M18.6995 18.4999H2.99951C1.89951 18.4999 0.999512 17.5999 0.999512 16.4999V5.8999C0.999512 4.7999 1.89951 3.8999 2.99951 3.8999H18.6995C19.7995 3.8999 20.6995 4.7999 20.6995 5.8999V16.4999C20.6995 17.5999 19.7995 18.4999 18.6995 18.4999Z" stroke="#1A76D0" stroke-miterlimit="10" stroke-linecap="round" stroke-linejoin="round"/>
      <path d="M20.6995 6.5L19.2995 7.9C18.4995 8.7 17.4995 9.3 16.3995 9.7L12.9995 10.8V9.9C12.9995 9.4 12.5995 9 12.0995 9H9.49951C8.99951 9 8.59951 9.4 8.59951 9.9V10.8L5.19951 9.7C4.09951 9.4 3.09951 8.8 2.29951 7.9L0.999512 6.5" stroke="#1A76D0" stroke-miterlimit="10" stroke-linecap="round" stroke-linejoin="round"/>
      <path d="M13.7 0.5H8C7.4 0.5 7 0.9 7 1.5V3.9H14.7V1.5C14.7 1 14.2 0.5 13.7 0.5Z" stroke="#1A76D0" stroke-miterlimit="10" stroke-linecap="round" stroke-linejoin="round"/>
      <path d="M11.9997 12.5006H9.69971C9.09971 12.5006 8.69971 12.1006 8.69971 11.5006V10.1006C8.69971 9.50059 9.09971 9.10059 9.69971 9.10059H11.9997C12.5997 9.10059 12.9997 9.50059 12.9997 10.1006V11.5006C12.9997 12.0006 12.4997 12.5006 11.9997 12.5006Z" stroke="#1A76D0" stroke-miterlimit="10" stroke-linecap="round" stroke-linejoin="round"/>

    </symbol>
    <symbol id="icon-animal" viewBox="0 0 22 21">
      <title>animal</title>
      <path d="M8.0001 9.4001C8.49715 9.4001 8.9001 8.99715 8.9001 8.5001C8.9001 8.00304 8.49715 7.6001 8.0001 7.6001C7.50304 7.6001 7.1001 8.00304 7.1001 8.5001C7.1001 8.99715 7.50304 9.4001 8.0001 9.4001Z" stroke="#1A76D0" stroke-miterlimit="10" stroke-linecap="round" stroke-linejoin="round"/>
      <path d="M14.2003 9.4001C14.6974 9.4001 15.1003 8.99715 15.1003 8.5001C15.1003 8.00304 14.6974 7.6001 14.2003 7.6001C13.7032 7.6001 13.3003 8.00304 13.3003 8.5001C13.3003 8.99715 13.7032 9.4001 14.2003 9.4001Z" stroke="#1A76D0" stroke-miterlimit="10" stroke-linecap="round" stroke-linejoin="round"/>
      <path d="M17.3002 11.6004V16.2004C17.3002 18.0004 18.8002 19.5004 20.6002 19.5004H20.9002V7.90039C20.9002 6.60039 20.2002 5.50039 19.1002 4.90039C18.2002 4.40039 15.6002 2.80039 14.7002 1.90039" stroke="#1A76D0" stroke-miterlimit="10" stroke-linecap="round" stroke-linejoin="round"/>
      <path d="M7.5999 1.90039C6.6999 2.80039 4.0999 4.40039 3.1999 4.90039C2.0999 5.40039 1.3999 6.60039 1.3999 7.90039V19.5004H1.6999C3.4999 19.5004 4.9999 18.0004 4.9999 16.2004V11.6004" stroke="#1A76D0" stroke-miterlimit="10" stroke-linecap="round" stroke-linejoin="round"/>
      <path d="M18.1002 8.10022C18.1002 4.00022 14.5002 0.600225 10.3002 1.10022C7.10016 1.50022 4.50016 4.00022 4.10016 7.20022C3.80016 9.30022 4.50016 11.3002 5.80016 12.7002C6.30016 13.3002 6.70016 14.0002 6.70016 14.8002V17.7002C6.70016 18.8002 7.40016 19.8002 8.40016 20.2002C8.90016 20.4002 9.50016 20.2002 9.90016 19.9002C10.6002 19.2002 11.7002 19.2002 12.4002 19.9002C12.8002 20.3002 13.4002 20.4002 13.9002 20.2002C14.9002 19.8002 15.6002 18.9002 15.6002 17.7002V14.9002C15.6002 14.1002 15.9002 13.3002 16.5002 12.7002C17.5002 11.5002 18.1002 9.80022 18.1002 8.10022Z" stroke="#1A76D0" stroke-miterlimit="10" stroke-linecap="round" stroke-linejoin="round"/>
      <path d="M12.8999 16.0008H9.3999V15.1008C9.3999 14.1008 10.1999 13.3008 11.1999 13.3008C12.1999 13.3008 12.9999 14.1008 12.9999 15.1008V16.0008H12.8999Z" stroke="#1A76D0" stroke-miterlimit="10" stroke-linecap="round" stroke-linejoin="round"/>

    </symbol>
    <symbol id="icon-repairs" viewBox="0 0 23 21">
      <title>repairs</title>
      <path d="M17.1002 9.2999L18.5002 5.8999L17.1002 2.4999C16.8002 1.7999 16.2002 1.3999 15.4002 1.3999H3.0002C2.0002 1.3999 1.2002 2.1999 1.2002 3.1999V9.4999C1.2002 9.9999 1.6002 10.3999 2.1002 10.3999C2.6002 10.3999 3.0002 10.7999 3.0002 11.2999V16.7999V19.4999C3.0002 19.9999 3.40019 20.3999 3.90019 20.3999H9.40019C9.90019 20.3999 10.3002 19.9999 10.3002 19.4999V17.6999C10.3002 17.1999 9.90019 16.7999 9.40019 16.7999H7.50019C7.00019 16.7999 6.60019 16.3999 6.60019 15.8999V12.1999C6.60019 11.1999 7.40019 10.3999 8.40019 10.3999H15.4002C16.2002 10.4999 16.9002 9.9999 17.1002 9.2999Z" stroke="#1A76D0" stroke-miterlimit="10" stroke-linecap="round" stroke-linejoin="round"/>
      <path d="M22.2 5.8999H18.5" stroke="#1A76D0" stroke-miterlimit="10" stroke-linecap="round" stroke-linejoin="round"/>
      <path d="M4.80029 4.1001H12.1003" stroke="#1A76D0" stroke-miterlimit="10" stroke-linecap="round" stroke-linejoin="round"/>
      <path d="M4.80029 6.80029H12.1003" stroke="#1A76D0" stroke-miterlimit="10" stroke-linecap="round" stroke-linejoin="round"/>
    </symbol>
    <symbol id="icon-buy" viewBox="0 0 17 21">
      <title>buy</title>
      <path d="M14.7405 19.7294H3.45405C2.09188 19.7294 0.924316 18.6591 0.924316 17.1997V4.74561H12.9892" stroke="#1A76D0" stroke-miterlimit="10" stroke-linecap="round" stroke-linejoin="round"/>
      <path d="M14.7405 19.7294C13.8648 19.7294 13.0864 18.951 13.0864 18.0753V4.74561H16.3945V18.0753C16.3945 18.951 15.6162 19.7294 14.7405 19.7294Z" stroke="#1A76D0" stroke-miterlimit="10" stroke-linecap="round" stroke-linejoin="round"/>
      <path d="M10.5566 4.7458H4.71875V3.48093C4.71875 1.82688 5.98362 0.562012 7.63767 0.562012C9.29172 0.562012 10.5566 1.82688 10.5566 3.48093V4.7458Z" stroke="#1A76D0" stroke-miterlimit="10" stroke-linecap="round" stroke-linejoin="round"/>
      <path d="M8.02686 4.7458H10.5566H13.8647V3.09174C13.8647 1.72958 12.7944 0.562012 11.335 0.562012H10.4593C9.9728 0.562012 9.58361 0.659309 9.19442 0.853904" stroke="#1A76D0" stroke-miterlimit="10" stroke-linecap="round" stroke-linejoin="round"/>

    </symbol>
    <symbol id="icon-lang-circle" viewBox="0 0 32 32">
      <title>lang-circle</title>
      <path d="M16 0.889c-8.335 0-15.111 6.776-15.111 15.111s6.776 15.111 15.111 15.111c8.335 0 15.111-6.776 15.111-15.111s-6.776-15.111-15.111-15.111zM16 2.667c7.374 0 13.333 5.959 13.333 13.333s-5.959 13.333-13.333 13.333c-7.374 0-13.333-5.959-13.333-13.333s5.959-13.333 13.333-13.333z"></path>
    </symbol>
    <symbol id="icon-lang-circle-filled" viewBox="0 0 32 32">
      <title>lang-circle-filled</title>
      <path d="M16 32c8.837 0 16-7.163 16-16s-7.163-16-16-16c-8.837 0-16 7.163-16 16s7.163 16 16 16z"></path>
    </symbol>
    <symbol id="icon-star-cv" viewBox="0 0 32 32">
      <title>star-cv</title>
      <path fill="#fff" style="fill: var(--color1, #fff)" d="M31.305 14.565c0.63-0.614 0.852-1.515 0.581-2.352s-0.982-1.435-1.853-1.562l-7.748-1.126c-0.33-0.048-0.615-0.255-0.763-0.554l-3.464-7.021c-0.389-0.789-1.178-1.279-2.058-1.279s-1.669 0.49-2.058 1.279l-3.465 7.021c-0.147 0.299-0.433 0.506-0.763 0.554l-7.748 1.127c-0.871 0.126-1.58 0.724-1.852 1.562s-0.049 1.738 0.581 2.352l5.606 5.464c0.239 0.233 0.349 0.569 0.292 0.897l-1.323 7.717c-0.149 0.867 0.201 1.726 0.912 2.244s1.637 0.586 2.417 0.175l6.929-3.643c0.295-0.155 0.648-0.155 0.943 0l6.93 3.643c0.338 0.178 0.705 0.266 1.069 0.266 0.474 0 0.945-0.148 1.348-0.441 0.712-0.518 1.061-1.377 0.912-2.244l-1.324-7.716c-0.056-0.329 0.053-0.664 0.292-0.897l5.606-5.465zM24.145 21.144l1.323 7.716c0.067 0.388-0.084 0.759-0.403 0.991s-0.718 0.259-1.067 0.077l-6.93-3.644c-0.334-0.175-0.702-0.263-1.068-0.263s-0.734 0.089-1.068 0.264l-6.929 3.643c-0.351 0.182-0.748 0.154-1.068-0.077s-0.469-0.602-0.403-0.991l1.323-7.716c0.128-0.745-0.119-1.505-0.66-2.031l-5.607-5.465c-0.283-0.276-0.379-0.664-0.256-1.039s0.427-0.633 0.818-0.69l7.748-1.126c0.748-0.108 1.394-0.577 1.728-1.255l3.465-7.021c0.174-0.354 0.515-0.565 0.909-0.565s0.734 0.211 0.909 0.565l3.465 7.021c0.334 0.678 0.98 1.147 1.728 1.255l7.748 1.126c0.39 0.057 0.696 0.315 0.818 0.69s0.026 0.763-0.256 1.039l-5.606 5.465c-0.541 0.527-0.788 1.287-0.659 2.032z"></path>
      <path d="M15.457 1.935l-4.649 7.438c-0.091 0.145-0.236 0.248-0.404 0.286l-8.837 1.964c-0.293 0.065-0.501 0.325-0.501 0.625v0.36c0 0.126 0.037 0.25 0.107 0.355l1.991 2.986c0.023 0.035 0.050 0.068 0.080 0.098l4.004 4.004c0.138 0.137 0.205 0.33 0.184 0.523l-0.999 8.989c-0.021 0.193 0.046 0.386 0.184 0.523l0.523 0.523c0.195 0.195 0.492 0.243 0.739 0.12l7.835-3.917c0.18-0.090 0.392-0.090 0.572 0l7.835 3.917c0.246 0.123 0.544 0.075 0.739-0.12l0.523-0.523c0.138-0.138 0.205-0.33 0.184-0.523l-0.999-8.989c-0.021-0.193 0.046-0.386 0.184-0.523l5.995-5.995c0.12-0.12 0.188-0.283 0.188-0.453v-1.355c0-0.3-0.208-0.56-0.501-0.625l-8.837-1.964c-0.167-0.037-0.313-0.14-0.404-0.286l-4.648-7.438c-0.251-0.401-0.835-0.401-1.085 0z"></path>
    </symbol>
    <symbol id="icon-pro" viewBox="0 0 32 32">
      <title>pro</title>
      <path fill="#d0251a" style="fill: var(--color1, #d0251a)" d="M32 16c0 8.837-7.163 16-16 16s-16-7.163-16-16c0-8.837 7.163-16 16-16s16 7.163 16 16z"></path>
      <path fill="#fff" style="fill: var(--color2, #fff)" d="M13.969 17.067c-0.9-1.775-0.421-2.792 0.271-3.751 0.758-1.050 0.953-2.088 0.953-2.088s0.596 0.734 0.357 1.881c1.052-1.11 1.251-2.879 1.092-3.556 2.379 1.575 3.396 4.986 2.026 7.513 7.288-3.907 1.813-9.752 0.86-10.411 0.318 0.658 0.378 1.773-0.264 2.314-1.087-3.904-3.773-4.703-3.773-4.703 0.318 2.013-1.152 4.214-2.569 5.859-0.050-0.803-0.103-1.357-0.548-2.125-0.1 1.458-1.276 2.647-1.595 4.108-0.431 1.979 0.323 3.427 3.19 4.958z"></path>
      <path fill="#fff" style="fill: var(--color2, #fff)" d="M11.025 23.997v1.603h-0.937v-4.55h1.775c0.342 0 0.642 0.063 0.9 0.188 0.26 0.125 0.46 0.303 0.6 0.534 0.14 0.229 0.209 0.491 0.209 0.784 0 0.446-0.153 0.798-0.459 1.056-0.304 0.256-0.726 0.384-1.266 0.384h-0.822zM11.025 23.238h0.838c0.248 0 0.436-0.058 0.566-0.175 0.131-0.117 0.197-0.283 0.197-0.5 0-0.223-0.066-0.403-0.197-0.541s-0.313-0.208-0.544-0.212h-0.859v1.428zM15.903 23.934h-0.747v1.666h-0.938v-4.55h1.691c0.538 0 0.952 0.12 1.244 0.359s0.437 0.578 0.437 1.016c0 0.311-0.068 0.57-0.203 0.778-0.133 0.206-0.336 0.371-0.609 0.494l0.984 1.859v0.044h-1.006l-0.853-1.666zM15.156 23.175h0.756c0.235 0 0.418-0.059 0.547-0.178 0.129-0.121 0.194-0.287 0.194-0.497 0-0.215-0.061-0.383-0.184-0.506-0.121-0.123-0.307-0.184-0.559-0.184h-0.753v1.366zM22.044 23.428c0 0.448-0.079 0.841-0.237 1.178s-0.386 0.598-0.681 0.781c-0.294 0.183-0.631 0.275-1.012 0.275-0.377 0-0.714-0.091-1.009-0.272s-0.525-0.44-0.688-0.775c-0.162-0.337-0.245-0.725-0.247-1.162v-0.225c0-0.448 0.080-0.842 0.241-1.181 0.162-0.342 0.391-0.603 0.684-0.784 0.296-0.183 0.633-0.275 1.012-0.275s0.716 0.092 1.009 0.275c0.296 0.181 0.524 0.443 0.684 0.784 0.162 0.34 0.244 0.732 0.244 1.178v0.203zM21.094 23.222c0-0.477-0.085-0.84-0.256-1.087s-0.415-0.372-0.731-0.372c-0.315 0-0.557 0.123-0.728 0.369-0.171 0.244-0.257 0.602-0.259 1.075v0.222c0 0.465 0.085 0.825 0.256 1.081s0.417 0.384 0.738 0.384c0.315 0 0.556-0.123 0.725-0.369 0.169-0.248 0.254-0.608 0.256-1.081v-0.222z"></path>
    </symbol>

    <symbol id="icon-circle-ads" viewBox="0 0 32 32">
      <title>circle-ads</title>
      <path d="M15.5 31C24.0604 31 31 24.0604 31 15.5C31 6.93959 24.0604 0 15.5 0C6.93959 0 0 6.93959 0 15.5C0 24.0604 6.93959 31 15.5 31Z"/>
    </symbol>

    <symbol id="icon-dots-ads" viewBox="0 0 46 32">
      <title>dots-ads</title>
      <path d="M5.12658 3.02609C5.96586 3.02609 6.64623 2.34867 6.64623 1.51304C6.64623 0.677413 5.96586 0 5.12658 0C4.2873 0 3.60693 0.677413 3.60693 1.51304C3.60693 2.34867 4.2873 3.02609 5.12658 3.02609Z"/>
      <path d="M12.882 4.12179C13.7212 4.12179 14.4016 3.44438 14.4016 2.60875C14.4016 1.77312 13.7212 1.0957 12.882 1.0957C12.0427 1.0957 11.3623 1.77312 11.3623 2.60875C11.3623 3.44438 12.0427 4.12179 12.882 4.12179Z"/>
      <path d="M20.5851 5.26974C21.4244 5.26974 22.1047 4.59233 22.1047 3.7567C22.1047 2.92106 21.4244 2.24365 20.5851 2.24365C19.7458 2.24365 19.0654 2.92106 19.0654 3.7567C19.0654 4.59233 19.7458 5.26974 20.5851 5.26974Z"/>
      <path d="M28.2882 6.36544C29.1275 6.36544 29.8079 5.68803 29.8079 4.8524C29.8079 4.01677 29.1275 3.33936 28.2882 3.33936C27.4489 3.33936 26.7686 4.01677 26.7686 4.8524C26.7686 5.68803 27.4489 6.36544 28.2882 6.36544Z"/>
      <path d="M36.0436 7.5129C36.8829 7.5129 37.5632 6.83549 37.5632 5.99986C37.5632 5.16423 36.8829 4.48682 36.0436 4.48682C35.2043 4.48682 34.5239 5.16423 34.5239 5.99986C34.5239 6.83549 35.2043 7.5129 36.0436 7.5129Z"/>
      <path d="M43.7467 8.60861C44.586 8.60861 45.2664 7.93119 45.2664 7.09556C45.2664 6.25993 44.586 5.58252 43.7467 5.58252C42.9074 5.58252 42.2271 6.25993 42.2271 7.09556C42.2271 7.93119 42.9074 8.60861 43.7467 8.60861Z"/>
      <path d="M4.026 10.6955C4.86528 10.6955 5.54565 10.0181 5.54565 9.18248C5.54565 8.34685 4.86528 7.66943 4.026 7.66943C3.18672 7.66943 2.50635 8.34685 2.50635 9.18248C2.50635 10.0181 3.18672 10.6955 4.026 10.6955Z"/>
      <path d="M11.7291 11.8435C12.5684 11.8435 13.2488 11.1661 13.2488 10.3304C13.2488 9.4948 12.5684 8.81738 11.7291 8.81738C10.8898 8.81738 10.2095 9.4948 10.2095 10.3304C10.2095 11.1661 10.8898 11.8435 11.7291 11.8435Z"/>
      <path d="M19.4322 12.9392C20.2715 12.9392 20.9519 12.2618 20.9519 11.4261C20.9519 10.5905 20.2715 9.91309 19.4322 9.91309C18.593 9.91309 17.9126 10.5905 17.9126 11.4261C17.9126 12.2618 18.593 12.9392 19.4322 12.9392Z"/>
      <path d="M27.1876 14.0866C28.0269 14.0866 28.7073 13.4092 28.7073 12.5736C28.7073 11.738 28.0269 11.0605 27.1876 11.0605C26.3483 11.0605 25.668 11.738 25.668 12.5736C25.668 13.4092 26.3483 14.0866 27.1876 14.0866Z"/>
      <path d="M34.8907 15.1823C35.73 15.1823 36.4104 14.5049 36.4104 13.6693C36.4104 12.8337 35.73 12.1562 34.8907 12.1562C34.0515 12.1562 33.3711 12.8337 33.3711 13.6693C33.3711 14.5049 34.0515 15.1823 34.8907 15.1823Z"/>
      <path d="M42.5939 16.3303C43.4331 16.3303 44.1135 15.6529 44.1135 14.8172C44.1135 13.9816 43.4331 13.3042 42.5939 13.3042C41.7546 13.3042 41.0742 13.9816 41.0742 14.8172C41.0742 15.6529 41.7546 16.3303 42.5939 16.3303Z"/>
      <path d="M2.87365 18.4172C3.71293 18.4172 4.39331 17.7398 4.39331 16.9042C4.39331 16.0685 3.71293 15.3911 2.87365 15.3911C2.03437 15.3911 1.354 16.0685 1.354 16.9042C1.354 17.7398 2.03437 18.4172 2.87365 18.4172Z"/>
      <path d="M10.629 19.5129C11.4683 19.5129 12.1487 18.8355 12.1487 17.9999C12.1487 17.1642 11.4683 16.4868 10.629 16.4868C9.78975 16.4868 9.10938 17.1642 9.10938 17.9999C9.10938 18.8355 9.78975 19.5129 10.629 19.5129Z"/>
      <path d="M18.3322 20.6086C19.1714 20.6086 19.8518 19.9312 19.8518 19.0956C19.8518 18.2599 19.1714 17.5825 18.3322 17.5825C17.4929 17.5825 16.8125 18.2599 16.8125 19.0956C16.8125 19.9312 17.4929 20.6086 18.3322 20.6086Z"/>
      <path d="M26.0353 21.7566C26.8746 21.7566 27.5549 21.0791 27.5549 20.2435C27.5549 19.4079 26.8746 18.7305 26.0353 18.7305C25.196 18.7305 24.5156 19.4079 24.5156 20.2435C24.5156 21.0791 25.196 21.7566 26.0353 21.7566Z"/>
      <path d="M33.7906 22.8518C34.6299 22.8518 35.3103 22.1744 35.3103 21.3387C35.3103 20.5031 34.6299 19.8257 33.7906 19.8257C32.9514 19.8257 32.271 20.5031 32.271 21.3387C32.271 22.1744 32.9514 22.8518 33.7906 22.8518Z"/>
      <path d="M41.4938 23.9997C42.3331 23.9997 43.0134 23.3223 43.0134 22.4867C43.0134 21.651 42.3331 20.9736 41.4938 20.9736C40.6545 20.9736 39.9741 21.651 39.9741 22.4867C39.9741 23.3223 40.6545 23.9997 41.4938 23.9997Z"/>
      <path d="M1.77307 26.0866C2.61235 26.0866 3.29272 25.4092 3.29272 24.5736C3.29272 23.738 2.61235 23.0605 1.77307 23.0605C0.933789 23.0605 0.253418 23.738 0.253418 24.5736C0.253418 25.4092 0.933789 26.0866 1.77307 26.0866Z"/>
      <path d="M9.47619 27.1823C10.3155 27.1823 10.9958 26.5049 10.9958 25.6693C10.9958 24.8337 10.3155 24.1562 9.47619 24.1562C8.63691 24.1562 7.95654 24.8337 7.95654 25.6693C7.95654 26.5049 8.63691 27.1823 9.47619 27.1823Z"/>
      <path d="M17.1793 28.3303C18.0186 28.3303 18.699 27.6529 18.699 26.8172C18.699 25.9816 18.0186 25.3042 17.1793 25.3042C16.34 25.3042 15.6597 25.9816 15.6597 26.8172C15.6597 27.6529 16.34 28.3303 17.1793 28.3303Z"/>
      <path d="M24.9347 29.426C25.774 29.426 26.4543 28.7486 26.4543 27.9129C26.4543 27.0773 25.774 26.3999 24.9347 26.3999C24.0954 26.3999 23.415 27.0773 23.415 27.9129C23.415 28.7486 24.0954 29.426 24.9347 29.426Z"/>
      <path d="M32.6378 30.5735C33.4771 30.5735 34.1575 29.896 34.1575 29.0604C34.1575 28.2248 33.4771 27.5474 32.6378 27.5474C31.7985 27.5474 31.1182 28.2248 31.1182 29.0604C31.1182 29.896 31.7985 30.5735 32.6378 30.5735Z"/>
      <path d="M40.3409 31.6692C41.1802 31.6692 41.8606 30.9917 41.8606 30.1561C41.8606 29.3205 41.1802 28.6431 40.3409 28.6431C39.5017 28.6431 38.8213 29.3205 38.8213 30.1561C38.8213 30.9917 39.5017 31.6692 40.3409 31.6692Z"/>
    </symbol>
    <symbol id="icon-star-review" viewBox="0 0 32 32">
      <title>-star-review</title>
      <path d="M31.305 14.565c0.63-0.614 0.852-1.515 0.581-2.352s-0.982-1.435-1.853-1.562l-7.748-1.126c-0.33-0.048-0.615-0.255-0.763-0.554l-3.464-7.021c-0.389-0.789-1.178-1.279-2.058-1.279s-1.669 0.49-2.058 1.279l-3.465 7.021c-0.147 0.299-0.433 0.506-0.763 0.554l-7.748 1.127c-0.871 0.126-1.58 0.724-1.852 1.562s-0.049 1.738 0.581 2.352l5.606 5.464c0.239 0.233 0.349 0.569 0.292 0.897l-1.323 7.717c-0.149 0.867 0.201 1.726 0.912 2.244s1.637 0.586 2.417 0.175l6.929-3.643c0.295-0.155 0.648-0.155 0.943 0l6.93 3.643c0.338 0.178 0.705 0.266 1.069 0.266 0.474 0 0.945-0.148 1.348-0.441 0.712-0.518 1.061-1.377 0.912-2.244l-1.324-7.716c-0.056-0.329 0.053-0.664 0.292-0.897l5.606-5.465zM24.145 21.144l1.323 7.716c0.067 0.388-0.084 0.759-0.403 0.991s-0.718 0.259-1.067 0.077l-6.93-3.644c-0.334-0.175-0.702-0.263-1.068-0.263s-0.734 0.089-1.068 0.264l-6.929 3.643c-0.351 0.182-0.748 0.154-1.068-0.077s-0.469-0.602-0.403-0.991l1.323-7.716c0.128-0.745-0.119-1.505-0.66-2.031l-5.607-5.465c-0.283-0.276-0.379-0.664-0.256-1.039s0.427-0.633 0.818-0.69l7.748-1.126c0.748-0.108 1.394-0.577 1.728-1.255l3.465-7.021c0.174-0.354 0.515-0.565 0.909-0.565s0.734 0.211 0.909 0.565l3.465 7.021c0.334 0.678 0.98 1.147 1.728 1.255l7.748 1.126c0.39 0.057 0.696 0.315 0.818 0.69s0.026 0.763-0.256 1.039l-5.606 5.465c-0.541 0.527-0.788 1.287-0.659 2.032z"></path>
    </symbol>
    <symbol id="icon-star-review-filled" viewBox="0 0 32 32">
      <title>star-review-filled</title>
      <path d="M31.306 14.564c0.63-0.614 0.852-1.515 0.58-2.352s-0.982-1.435-1.853-1.562l-7.748-1.126c-0.33-0.048-0.615-0.255-0.762-0.554l-3.464-7.020c-0.389-0.789-1.178-1.279-2.058-1.279s-1.669 0.49-2.058 1.279l-3.465 7.021c-0.147 0.299-0.433 0.506-0.763 0.554l-7.748 1.126c-0.871 0.126-1.581 0.725-1.853 1.562s-0.049 1.738 0.581 2.352l5.606 5.465c0.239 0.233 0.349 0.569 0.292 0.897l-1.323 7.716c-0.117 0.679 0.061 1.34 0.5 1.861 0.683 0.812 1.876 1.059 2.829 0.558l6.929-3.643c0.29-0.152 0.654-0.151 0.943 0l6.93 3.643c0.337 0.178 0.696 0.267 1.068 0.267 0.677 0 1.319-0.301 1.761-0.825 0.44-0.521 0.618-1.183 0.5-1.861l-1.323-7.716c-0.056-0.329 0.053-0.664 0.292-0.897l5.606-5.465z"></path>
    </symbol>
    <symbol id="icon-delete" viewBox="0 0 32 32">
      <title>delete</title>
      <path d="M28.799 2.629c1.136 1.136 1.136 2.978 0 4.114l-22.627 22.627c-1.136 1.136-2.978 1.136-4.114 0s-1.136-2.978 0-4.114l22.627-22.627c1.136-1.136 2.978-1.136 4.114 0z"></path>
      <path d="M2.057 2.629c1.136-1.136 2.978-1.136 4.114 0l22.627 22.627c1.136 1.136 1.136 2.978 0 4.114s-2.978 1.136-4.114 0l-22.627-22.627c-1.136-1.136-1.136-2.978 0-4.114z"></path>
    </symbol>
    <symbol id="icon-chain" viewBox="0 0 32 32">
      <title>chain</title>
      <path d="M29.514 14.499l-6.007 6.005c-3.315 3.317-8.694 3.317-12.010 0-0.522-0.521-0.931-1.108-1.29-1.713l2.791-2.791c0.133-0.134 0.296-0.21 0.453-0.301 0.193 0.659 0.53 1.283 1.048 1.802 1.656 1.657 4.35 1.655 6.005 0l6.005-6.005c1.657-1.657 1.657-4.351 0-6.006-1.655-1.656-4.349-1.656-6.005 0l-2.135 2.138c-1.733-0.675-3.6-0.856-5.417-0.59l4.55-4.55c3.317-3.317 8.695-3.317 12.012 0 3.316 3.317 3.316 8.695 0 12.011zM13.634 24.373l-2.137 2.138c-1.656 1.655-4.35 1.655-6.006 0-1.656-1.657-1.656-4.351 0-6.007l6.006-6.005c1.657-1.657 4.35-1.657 6.005 0 0.517 0.517 0.855 1.141 1.049 1.8 0.157-0.092 0.319-0.166 0.452-0.299l2.791-2.79c-0.357-0.608-0.767-1.192-1.29-1.714-3.315-3.317-8.694-3.317-12.011 0l-6.005 6.005c-3.316 3.318-3.316 8.694 0 12.012 3.317 3.316 8.695 3.316 12.011 0l4.552-4.551c-1.819 0.268-3.686 0.085-5.417-0.589z"></path>
    </symbol>

    <symbol id="icon-EN" viewBox="0 0 22 22">
      <title>EN</title>
      <g clip-path="url(#clip0)">
        <path d="M17.4883 1.76172H4.51172C2.0239 1.76172 0 3.78561 0 6.27344V13.5328C0 16.0206 2.0239 18.0445 4.51172 18.0445H5.18126L6.75046 20.0354C6.87282 20.1904 7.0593 20.2809 7.25668 20.2809C7.45407 20.2809 7.64072 20.1904 7.76291 20.0354L9.33211 18.0445H17.4883C19.9761 18.0445 22 16.0206 22 13.5328V6.27344C22 3.78561 19.9761 1.76172 17.4883 1.76172V1.76172Z" fill="#6787F5"/>
        <path d="M17.4883 1.76172H11V18.0445H17.4883C19.9761 18.0445 22 16.0206 22 13.5328V6.27344C22 3.78561 19.9761 1.76172 17.4883 1.76172Z" fill="#38478A"/>
        <path d="M8.5835 18.9944L9.33226 18.0444L8.5835 18.9944Z" fill="white"/>
        <path d="M22 7.05779H16.5807L20.6148 3.02376C19.8032 2.24277 18.701 1.76172 17.4883 1.76172H16.4079L13.8463 4.32323V1.76172H8.15382V4.32323L5.59232 1.76172H4.51172C3.29903 1.76172 2.19678 2.24277 1.38524 3.02376L5.41927 7.05779H0V12.7503H5.41927L1.53664 16.6328L1.38608 16.7833C2.19762 17.564 3.29953 18.0445 4.51172 18.0445H5.18126L5.3632 18.2753L8.08467 15.5537L8.04053 18.0445H13.8462V15.4919L16.3904 18.0445H17.4883C18.6953 18.0445 19.793 17.5682 20.6033 16.7936L20.4516 16.6412L16.5737 12.7503H22V7.05779Z" fill="white"/>
        <path d="M22 7.05779H16.5807L20.6148 3.02376C19.8032 2.24277 18.701 1.76172 17.4883 1.76172H16.4079L13.8463 4.32323V1.76172H11V18.0445H13.8462V15.4919L16.3904 18.0445H17.4883C18.6953 18.0445 19.793 17.5682 20.6033 16.7936L20.4516 16.6412L16.5737 12.7503H22V7.05779Z" fill="#C7D3ED"/>
        <path d="M12.5571 8.34685V1.76172H9.44289V8.34685H0V11.4612H9.44289L9.33211 18.0445H12.5571V11.4612H22V8.34685H12.5571Z" fill="#FF337A"/>
        <path d="M12.5571 8.34685V1.76172H11V18.0445H12.5571V11.4612H22V8.34685H12.5571Z" fill="#D1005B"/>
        <path d="M8.58308 7.48734V6.57593L3.82161 1.81445C3.33334 1.88965 2.87059 2.04356 2.44678 2.2626L7.67168 7.48734H8.58308Z" fill="#FF337A"/>
        <path d="M19.5528 2.2626C19.129 2.04356 18.6662 1.88965 18.178 1.81445L13.4165 6.57593V7.48734H14.3279L19.5528 2.2626Z" fill="#D1005B"/>
        <path d="M2.44824 17.5445C2.87222 17.7634 3.33498 17.9171 3.82341 17.9923L8.58337 13.2322V12.3208H7.67197L2.44824 17.5445Z" fill="#FF337A"/>
        <path d="M13.4165 12.3208V13.2349L18.1602 17.9947C18.6495 17.9212 19.1134 17.7691 19.5384 17.5514L14.3254 12.3208H13.4165Z" fill="#D1005B"/>
      </g>
      <clipPath id="clip0">
        <rect width="22" height="22" fill="white"/>
      </clipPath>
    </symbol>
    <symbol id="icon-edit" viewBox="0 0 35 32">
      <title>edit</title>
      <path d="M31.251 1.277c1.703 1.703 1.703 4.464 0 6.168l-20.967 20.967c-0.405 0.405-0.912 0.695-1.468 0.837l-2.679 0.687c-2.543 0.652-4.746-1.866-3.761-4.3l0.877-2.169c0.161-0.398 0.4-0.759 0.704-1.063l21.126-21.126c1.703-1.703 4.464-1.703 6.168 0z"></path>
    </symbol>
    <symbol id="icon-close" viewBox="0 0 32 32">
      <title>close</title>
      <path d="M28.617 1.997c1.103 1.103 1.103 2.89 0 3.993l-22.627 22.627c-1.103 1.103-2.89 1.103-3.993 0s-1.103-2.89 0-3.993l22.627-22.627c1.103-1.103 2.89-1.103 3.993 0z"></path>
      <path d="M1.997 1.997c1.103-1.103 2.89-1.103 3.993 0l22.627 22.627c1.103 1.103 1.103 2.89 0 3.993s-2.89 1.103-3.993 0l-22.627-22.627c-1.103-1.103-1.103-2.89 0-3.993z"></path>
    </symbol>
    <symbol id="icon-visible" viewBox="0 0 32 32">
      <title>visible</title>
      <path d="M16 5.333c-10.667 0-14.667 10.667-14.667 10.667s4 10.667 14.667 10.667c10.667 0 14.667-10.667 14.667-10.667s-4-10.667-14.667-10.667zM16 9.333c3.681 0 6.667 2.985 6.667 6.667s-2.985 6.667-6.667 6.667c-3.681 0-6.667-2.985-6.667-6.667s2.985-6.667 6.667-6.667zM16 12c-1.061 0-2.078 0.421-2.828 1.172s-1.172 1.768-1.172 2.828c0 1.061 0.421 2.078 1.172 2.828s1.768 1.172 2.828 1.172c1.061 0 2.078-0.421 2.828-1.172s1.172-1.768 1.172-2.828c0-1.061-0.421-2.078-1.172-2.828s-1.768-1.172-2.828-1.172z"></path>
    </symbol>

    <symbol id="icon-play" viewBox="0 0 30 30">
      <title>play</title>
      <path d="M 6 3 A 1 1 0 0 0 5 4 A 1 1 0 0 0 5 4.0039062 L 5 15 L 5 25.996094 A 1 1 0 0 0 5 26 A 1 1 0 0 0 6 27 A 1 1 0 0 0 6.5800781 26.8125 L 6.5820312 26.814453 L 26.416016 15.908203 A 1 1 0 0 0 27 15 A 1 1 0 0 0 26.388672 14.078125 L 6.5820312 3.1855469 L 6.5800781 3.1855469 A 1 1 0 0 0 6 3 z" fill="#ffffff"/>
    </symbol>


    <symbol id="icon-download" viewBox="0 0 34 32">
      <title>download</title>
      <path d="M15.447 1.557c-0.852 0-1.544 0.645-1.544 1.439v11.513h-5.403c-0.205 0-0.401 0.076-0.546 0.211s-0.226 0.318-0.226 0.509c0 0.191 0.081 0.374 0.226 0.509 0.015 0.015 0.032 0.029 0.048 0.042l7.933 6.974c0.286 0.25 0.663 0.39 1.055 0.391s0.77-0.14 1.055-0.391l0.021-0.017c0.005-0.006 0.010-0.011 0.015-0.017l7.878-6.926c0.016-0.013 0.031-0.026 0.045-0.039l0.012-0.008c0.003-0.003 0.006-0.006 0.009-0.008 0.145-0.135 0.226-0.318 0.226-0.509s-0.081-0.374-0.226-0.509c-0.145-0.135-0.341-0.211-0.546-0.211h-5.403v-11.513c0-0.794-0.692-1.439-1.544-1.439h-3.087zM3.097 27.462c-0.205-0.003-0.408 0.033-0.597 0.104s-0.363 0.177-0.508 0.311-0.261 0.294-0.34 0.47c-0.079 0.176-0.12 0.365-0.12 0.555s0.041 0.38 0.12 0.556c0.079 0.176 0.195 0.336 0.34 0.47s0.318 0.239 0.508 0.311c0.19 0.071 0.393 0.106 0.597 0.103h27.787c0.205 0.003 0.408-0.032 0.598-0.103s0.362-0.177 0.508-0.311c0.146-0.134 0.261-0.294 0.34-0.47s0.12-0.365 0.12-0.556-0.041-0.38-0.12-0.555c-0.079-0.176-0.195-0.336-0.34-0.47s-0.319-0.239-0.508-0.311c-0.19-0.071-0.393-0.106-0.598-0.104h-27.787z"></path>
    </symbol>
    <symbol id="icon-plus_in_circle" viewBox="0 0 32 32">
      <title>plus_in_circle</title>
      <path d="M16 0c-8.836 0-16 7.164-16 16s7.164 16 16 16c8.836 0 16-7.164 16-16s-7.164-16-16-16zM24 17.333h-6.667v6.667c0 0.737-0.597 1.333-1.333 1.333s-1.333-0.596-1.333-1.333v-6.667h-6.667c-0.736 0-1.333-0.596-1.333-1.333s0.597-1.333 1.333-1.333h6.667v-6.667c0-0.737 0.597-1.333 1.333-1.333s1.333 0.596 1.333 1.333v6.667h6.667c0.736 0 1.333 0.596 1.333 1.333s-0.597 1.333-1.333 1.333z"></path>
    </symbol>
    <symbol id="icon-minus_in_circle" viewBox="0 0 32 32">
      <title>minus_in_circle</title>
      <path d="M16 0c-8.836 0-16 7.164-16 16s7.164 16 16 16c8.836 0 16-7.164 16-16s-7.164-16-16-16zM24 17.333h-16c-0.736 0-1.333-0.596-1.333-1.333s0.597-1.333 1.333-1.333h16c0.736 0 1.333 0.596 1.333 1.333s-0.597 1.333-1.333 1.333z"></path>
    </symbol>
    <symbol id="icon-link" viewBox="0 0 32 32">
      <title>link</title>
      <path d="M22.667 14.667h-13.333v2.667h13.333v-2.667z"></path>
      <path d="M24 9.333c-0.949 0-4.384 0-5.333 0v2.667c1.029 0 4.304 0 5.333 0 2.209 0 4 1.791 4 4s-1.791 4-4 4c-1.029 0-4.304 0-5.333 0v2.667c0.949 0 4.384 0 5.333 0 3.681 0 6.667-2.985 6.667-6.667s-2.985-6.667-6.667-6.667z"></path>
      <path d="M8 22.667c0.949 0 4.384 0 5.333 0v-2.667c-1.029 0-4.304 0-5.333 0-2.209 0-4-1.791-4-4s1.791-4 4-4c1.029 0 4.304 0 5.333 0v-2.667c-0.949 0-4.384 0-5.333 0-3.681 0-6.667 2.985-6.667 6.667s2.985 6.667 6.667 6.667z"></path>
    </symbol>
    <symbol id="icon-pencil" viewBox="0 0 32 32">
      <title>pencil</title>
      <path d="M27.237 0c-1.219 0-2.438 0.464-3.368 1.395l-1.974 1.974 6.737 6.737 1.974-1.974c1.859-1.859 1.859-4.876 0-6.737-0.931-0.931-2.15-1.395-3.368-1.395zM19.369 5.895l-16 16c0 0 1.693 0.008 2.526 0.842s0.816 2.5 0.816 2.5c0 0 1.717 0.033 2.553 0.868s0.842 2.526 0.842 2.526l16-16-6.737-6.737zM1.129 25.263l-1.105 5.901c-0.089 0.482 0.331 0.902 0.813 0.812l5.901-1.105-5.609-5.609z"></path>
    </symbol>
  </defs>
</svg>
